<svg width="27" height="28" viewBox="0 0 27 28" fill="none" xmlns="http://www.w3.org/2000/svg">
<path d="M13.4972 0.833984C9.53937 0.833984 6.9736 3.49054 3.93941 4.45896C2.70521 4.85369 2.08811 5.04974 1.83811 5.32737C1.58811 5.60368 1.51575 6.01026 1.3697 6.82078C-0.196083 15.4997 3.22494 23.5233 11.3828 26.6469C12.2578 26.9825 12.6959 27.1496 13.5012 27.1496C14.3064 27.1496 14.7459 26.9812 15.6222 26.6456C23.7787 23.5233 27.1958 15.4997 25.63 6.82078C25.484 6.01026 25.4103 5.60368 25.1603 5.32606C24.9103 5.04843 24.2945 4.85237 23.0603 4.45896C20.0248 3.49054 17.4551 0.833984 13.4972 0.833984Z" stroke="#004EA2" stroke-width="1.5" stroke-linecap="round" stroke-linejoin="round"/>
<path d="M11.1973 11.3063C11.1973 11.2273 11.2079 10.7721 11.2105 10.201C11.2105 9.67735 11.1657 9.17472 11.4157 8.7142C12.3499 6.85369 15.0341 7.04316 15.6973 8.93788C15.8118 9.24972 15.8197 9.74314 15.8157 10.201C15.8118 10.7839 15.8236 11.3063 15.8236 11.3063M11.3118 11.8602C9.89076 11.8602 9.18024 12.8865 9.02234 13.5181C8.86445 14.1497 8.86445 16.4391 8.95918 17.3865C9.27497 18.5707 10.0644 19.0602 10.8381 19.2181C11.5486 19.2812 14.5486 19.2575 15.417 19.2575C16.6802 19.2812 17.6275 18.8075 18.0223 17.3865C18.1012 16.9128 18.1802 14.3076 17.9828 13.5181C17.5644 12.255 16.5223 11.8602 15.7328 11.8602H11.3118Z" stroke="#004EA2" stroke-width="1.5" stroke-linecap="round" stroke-linejoin="round"/>
</svg>
