<svg width="26" height="26" viewBox="0 0 26 26" fill="none" xmlns="http://www.w3.org/2000/svg">
<path d="M16.4167 19.693C16.4167 19.9003 16.3343 20.0992 16.1877 20.2458C16.0411 20.3924 15.8422 20.4747 15.6349 20.4747H4.69047C4.51849 20.4747 4.35432 20.6311 4.21361 20.7327L1.56349 22.82V10.312C1.56349 10.1047 1.64585 9.90586 1.79246 9.75926C1.93907 9.61265 2.13791 9.53029 2.34524 9.53029H5.36278V7.9668H2.34524C1.72324 7.9668 1.12672 8.21388 0.686904 8.6537C0.247087 9.09352 0 9.69004 0 10.312V24.3835C0.00116347 24.5286 0.0427357 24.6706 0.120058 24.7935C0.19738 24.9164 0.307396 25.0153 0.437778 25.0792C0.563388 25.1363 0.70188 25.1592 0.839184 25.1455C0.976489 25.1317 1.10771 25.0819 1.21952 25.001L5.24551 22.0382H15.7522C16.0485 22.047 16.3434 21.9948 16.6187 21.885C16.894 21.7751 17.1438 21.6099 17.3527 21.3996C17.5616 21.1892 17.725 20.9383 17.833 20.6622C17.9409 20.3861 17.991 20.0908 17.9802 19.7946V18.9112H16.4167V19.693Z" fill="#ED6C00"/>
<path d="M23.4518 9.70232V17.3009L20.7157 15.1667C20.5793 15.0608 20.4116 15.0031 20.2388 15.0026H9.38039C9.17306 15.0026 8.97422 14.9202 8.82762 14.7736C8.68101 14.627 8.59865 14.4281 8.59865 14.2208V4.83987C8.59865 4.63253 8.68101 4.43369 8.82762 4.28709C8.97422 4.14048 9.17306 4.05812 9.38039 4.05812H16.0252C16.0274 3.52947 16.101 3.00354 16.2441 2.49463H9.38039C8.7584 2.49463 8.16188 2.74172 7.72206 3.18153C7.28224 3.62135 7.03516 4.21787 7.03516 4.83987V14.2208C7.03516 14.8428 7.28224 15.4393 7.72206 15.8791C8.16188 16.319 8.7584 16.5661 9.38039 16.5661H19.973L23.7098 19.4663C23.8209 19.5485 23.9517 19.5997 24.0891 19.6148C24.2264 19.6299 24.3653 19.6083 24.4915 19.5523C24.6246 19.489 24.737 19.3893 24.8158 19.2648C24.8947 19.1403 24.9367 18.9961 24.9371 18.8487V9.03784C24.4753 9.32729 23.9754 9.55094 23.4518 9.70232Z" fill="#ED6C00"/>
<path d="M21.8892 7.96687C24.0479 7.96687 25.7979 6.21687 25.7979 4.05814C25.7979 1.89941 24.0479 0.149414 21.8892 0.149414C19.7305 0.149414 17.9805 1.89941 17.9805 4.05814C17.9805 6.21687 19.7305 7.96687 21.8892 7.96687Z" fill="#ED6C00"/>
</svg>
