<svg width="28" height="23" viewBox="0 0 28 23" fill="none" xmlns="http://www.w3.org/2000/svg">
<mask id="path-1-inside-1_8092_1193" fill="white">
<path d="M13.9161 1.29632e-06C13.7895 -0.000215848 13.6645 0.0268497 13.5503 0.0792054C13.436 0.131561 13.3355 0.207873 13.256 0.302523L13.1054 0.409869C10.1857 -0.45866 6.8548 0.178912 4.53602 2.32584C3.56473 3.21108 2.84219 4.31799 2.43559 5.54361C2.02899 6.76924 1.95155 8.07377 2.21047 9.33588L2.12584 9.4107L0.807349 10.6305C0.552299 10.863 0.349185 11.143 0.210383 11.4534C0.0715817 11.7638 0 12.0981 0 12.4359C0 12.7737 0.0715817 13.108 0.210383 13.4184C0.349185 13.7288 0.552299 14.0088 0.807349 14.2413C1.48098 14.8658 2.41526 15.1001 3.28354 14.9439C3.39017 15.414 3.63897 15.8612 4.03333 16.2256C4.55294 16.707 5.22827 16.9558 5.90867 16.9737C5.92728 17.6032 6.1964 18.2277 6.71601 18.7092C7.23562 19.1906 7.91263 19.4411 8.59304 19.4573C8.60996 20.0868 8.88077 20.713 9.40038 21.1944C9.89783 21.6481 10.5495 21.9132 11.2347 21.9407C11.9199 21.9682 12.5923 21.7562 13.1274 21.344L13.867 22.0271C14.9502 23.0307 16.7071 23.0307 17.7903 22.0271C18.3082 21.549 18.5773 20.9277 18.601 20.2998C19.278 20.2803 19.9466 20.0315 20.4628 19.5533C20.979 19.0751 21.2499 18.4522 21.2702 17.8244C21.9579 17.8004 22.6125 17.5348 23.11 17.0778C23.5212 16.6989 23.7751 16.2288 23.8733 15.7376C24.309 15.8109 24.7564 15.7849 25.1797 15.6618C25.603 15.5386 25.9904 15.3217 26.3106 15.0285C26.5659 14.796 26.7692 14.5159 26.9082 14.2054C27.0471 13.8948 27.1188 13.5603 27.1188 13.2223C27.1188 12.8843 27.0471 12.5498 26.9082 12.2393C26.7692 11.9287 26.5659 11.6486 26.3106 11.4161L25.0919 10.289L25.3407 9.39443C25.8422 7.56548 25.5875 5.62098 24.6299 3.96856C23.2149 1.51911 20.4696 0.00650705 17.5009 0.00650705H15.4191L15.1499 1.29632e-06H13.9161ZM18.0679 6.04392L22.1384 9.81243L22.1435 9.81568L25.0902 12.5449C25.186 12.6321 25.2622 12.7372 25.3143 12.8536C25.3664 12.9701 25.3932 13.0955 25.3932 13.2223C25.3932 13.3491 25.3664 13.4745 25.3143 13.591C25.2622 13.7074 25.186 13.8125 25.0902 13.8997C24.8923 14.0793 24.6304 14.1793 24.3582 14.1793C24.086 14.1793 23.8241 14.0793 23.6262 13.8997L21.3903 11.8309C21.2265 11.6798 21.0081 11.5954 20.781 11.5954C20.5539 11.5954 20.3356 11.6798 20.1717 11.8309L20.148 11.8504C20.0686 11.9233 20.0055 12.0109 19.9623 12.1079C19.9192 12.2049 19.8969 12.3093 19.8969 12.4148C19.8969 12.5203 19.9192 12.6247 19.9623 12.7217C20.0055 12.8187 20.0686 12.9063 20.148 12.9791L21.8913 14.5926C22.2975 14.9667 22.2975 15.575 21.8913 15.9507C21.7116 16.1144 21.4781 16.2128 21.231 16.2292C20.984 16.2455 20.7387 16.1787 20.5373 16.0401C20.3692 15.9235 20.1639 15.867 19.9571 15.8807C19.7502 15.8944 19.5549 15.9773 19.405 16.115C19.2585 16.2495 19.1701 16.4321 19.1572 16.6265C19.1444 16.8208 19.208 17.0127 19.3356 17.164C19.4875 17.3469 19.5625 17.5779 19.5455 17.8114C19.5286 18.0448 19.4211 18.2637 19.2442 18.4245C19.0619 18.5907 18.8244 18.6896 18.5735 18.7039C18.3227 18.7182 18.0747 18.6469 17.8732 18.5026C17.706 18.3821 17.4998 18.3221 17.2911 18.3335C17.0824 18.3448 16.8845 18.4266 16.7325 18.5644C16.5841 18.6988 16.4941 18.8821 16.4806 19.0776C16.4671 19.2731 16.5311 19.4663 16.6597 19.6184C16.8159 19.8034 16.8936 20.0384 16.8769 20.2761C16.8603 20.5139 16.7506 20.7368 16.57 20.9C16.3696 21.0827 16.104 21.1846 15.8278 21.1846C15.5516 21.1846 15.286 21.0827 15.0856 20.9L14.3528 20.2218L14.6202 19.9746C14.8755 19.742 15.0788 19.462 15.2178 19.1514C15.3567 18.8409 15.4284 18.5064 15.4284 18.1684C15.4284 17.8303 15.3567 17.4959 15.2178 17.1853C15.0788 16.8748 14.8755 16.5947 14.6202 16.3622C14.114 15.8969 13.4452 15.63 12.7448 15.614C12.7239 14.9555 12.4339 14.3314 11.9375 13.877C11.4306 13.4118 10.7611 13.1456 10.0605 13.1304C10.0396 12.4719 9.7495 11.8478 9.25313 11.3934C8.92797 11.0959 8.53377 10.8772 8.10317 10.7553C7.67257 10.6334 7.21795 10.6118 6.77694 10.6923C6.66508 10.203 6.40405 9.75683 6.02714 9.4107C5.73828 9.14522 5.39379 8.94203 5.01669 8.8147C4.6396 8.68736 4.23856 8.63881 3.84038 8.67228C3.70732 7.71922 3.81128 6.74941 4.14374 5.84243C4.4762 4.93545 5.02768 4.11713 5.75295 3.4546C6.48599 2.78146 7.36496 2.27254 8.32682 1.96435C9.28868 1.65615 10.3096 1.55632 11.3163 1.672L8.85369 3.41231C8.5386 3.63232 8.27318 3.91142 8.07345 4.23274C7.87373 4.55407 7.74384 4.91096 7.69164 5.28186C7.63944 5.65277 7.66601 6.02999 7.76973 6.39075C7.87346 6.75152 8.05219 7.08834 8.29515 7.38087C8.78674 7.97256 9.49667 8.35949 10.2774 8.46127C11.0582 8.56304 11.8497 8.37183 12.4876 7.92737L15.155 6.04555L18.0679 6.04392ZM9.85567 4.72161L14.2427 1.62646H15.1499C15.2329 1.6257 15.3159 1.62787 15.3987 1.63297H17.5009C19.8772 1.63297 22.0453 2.84468 23.1506 4.75902C23.8987 6.05368 24.095 7.55816 23.704 8.97806L23.699 8.99432L19.0275 4.65655C18.8692 4.50393 18.6543 4.41794 18.4301 4.41747H14.8757C14.6961 4.4178 14.5212 4.47305 14.3764 4.57523L11.4856 6.61481C11.2015 6.80982 10.8507 6.89333 10.5047 6.84829C10.1587 6.80326 9.84367 6.63308 9.62379 6.37247C9.52144 6.25131 9.44598 6.1113 9.40206 5.96106C9.35814 5.81082 9.34669 5.65353 9.36841 5.49888C9.39013 5.34423 9.44457 5.19548 9.52837 5.06181C9.61217 4.92813 9.72355 4.81236 9.85567 4.72161ZM10.6038 18.7254L10.6207 18.7092L11.9375 17.4893L11.9527 17.4763C12.1517 17.3029 12.4115 17.2081 12.6801 17.2108C12.9487 17.2136 13.2064 17.3136 13.4015 17.4909C13.4973 17.5782 13.5735 17.6832 13.6256 17.7997C13.6777 17.9162 13.7046 18.0416 13.7046 18.1684C13.7046 18.2951 13.6777 18.4206 13.6256 18.537C13.5735 18.6535 13.4973 18.7586 13.4015 18.8458L12.0831 20.0656C11.8851 20.2452 11.6232 20.3452 11.351 20.3452C11.0788 20.3452 10.8169 20.2452 10.619 20.0656C10.5245 19.9797 10.449 19.8764 10.3969 19.7619C10.3447 19.6474 10.317 19.524 10.3154 19.399C10.3139 19.274 10.3384 19.15 10.3877 19.0343C10.4369 18.9186 10.5115 18.8135 10.6038 18.7254ZM10.7324 16.3475L10.7155 16.3622L9.39869 17.582L9.38176 17.5967C9.18263 17.7694 8.9231 17.8636 8.65489 17.8606C8.38668 17.8576 8.12951 17.7575 7.93464 17.5804C7.83999 17.4941 7.7644 17.3903 7.71238 17.2754C7.66036 17.1604 7.63299 17.0365 7.63188 16.9111C7.63077 16.7857 7.65596 16.6614 7.70594 16.5456C7.75593 16.4297 7.82967 16.3248 7.92279 16.2369L7.93464 16.2256L9.25143 15.0057L9.26328 14.9943C9.46206 14.8196 9.72231 14.7236 9.99171 14.7257C10.2611 14.7278 10.5197 14.8279 10.7155 15.0057C10.8102 15.0917 10.886 15.1951 10.9383 15.3097C10.9906 15.4244 11.0183 15.548 11.0199 15.6732C11.0215 15.7984 10.9969 15.9226 10.9475 16.0384C10.8981 16.1543 10.8249 16.2594 10.7324 16.3475ZM8.0328 13.877L6.71432 15.0968L6.70247 15.1082C6.50369 15.2829 6.24344 15.3789 5.97404 15.3768C5.70464 15.3747 5.44606 15.2746 5.25027 15.0968C5.15455 15.0096 5.07831 14.9045 5.02622 14.7881C4.97412 14.6716 4.94726 14.5461 4.94726 14.4194C4.94726 14.2926 4.97412 14.1672 5.02622 14.0507C5.07831 13.9342 5.15455 13.8292 5.25027 13.742L6.56706 12.5221C6.76508 12.3421 7.02733 12.2417 7.29994 12.2417C7.57254 12.2417 7.83479 12.3421 8.0328 12.5221C8.12772 12.6084 8.20353 12.7123 8.2557 12.8274C8.30787 12.9426 8.33533 13.0667 8.33644 13.1922C8.33755 13.3178 8.31228 13.4423 8.26214 13.5583C8.212 13.6743 8.13803 13.7793 8.04465 13.8672L8.0328 13.877ZM4.80682 11.8943L3.49003 13.1141C3.29201 13.2942 3.02976 13.3945 2.75716 13.3945C2.48455 13.3945 2.2223 13.2942 2.02429 13.1141C1.9283 13.0269 1.85184 12.9217 1.79959 12.8051C1.74733 12.6885 1.72038 12.5629 1.72038 12.4359C1.72038 12.3089 1.74733 12.1833 1.79959 12.0667C1.85184 11.9501 1.9283 11.8449 2.02429 11.7577L3.34277 10.5378C3.5407 10.3583 3.8026 10.2582 4.0748 10.2582C4.347 10.2582 4.6089 10.3583 4.80682 10.5378C4.90281 10.6251 4.97927 10.7302 5.03152 10.8468C5.08378 10.9635 5.11073 11.0891 5.11073 11.2161C5.11073 11.343 5.08378 11.4687 5.03152 11.5853C4.97927 11.7019 4.90281 11.807 4.80682 11.8943Z"/>
</mask>
<path d="M13.9161 1.29632e-06C13.7895 -0.000215848 13.6645 0.0268497 13.5503 0.0792054C13.436 0.131561 13.3355 0.207873 13.256 0.302523L13.1054 0.409869C10.1857 -0.45866 6.8548 0.178912 4.53602 2.32584C3.56473 3.21108 2.84219 4.31799 2.43559 5.54361C2.02899 6.76924 1.95155 8.07377 2.21047 9.33588L2.12584 9.4107L0.807349 10.6305C0.552299 10.863 0.349185 11.143 0.210383 11.4534C0.0715817 11.7638 0 12.0981 0 12.4359C0 12.7737 0.0715817 13.108 0.210383 13.4184C0.349185 13.7288 0.552299 14.0088 0.807349 14.2413C1.48098 14.8658 2.41526 15.1001 3.28354 14.9439C3.39017 15.414 3.63897 15.8612 4.03333 16.2256C4.55294 16.707 5.22827 16.9558 5.90867 16.9737C5.92728 17.6032 6.1964 18.2277 6.71601 18.7092C7.23562 19.1906 7.91263 19.4411 8.59304 19.4573C8.60996 20.0868 8.88077 20.713 9.40038 21.1944C9.89783 21.6481 10.5495 21.9132 11.2347 21.9407C11.9199 21.9682 12.5923 21.7562 13.1274 21.344L13.867 22.0271C14.9502 23.0307 16.7071 23.0307 17.7903 22.0271C18.3082 21.549 18.5773 20.9277 18.601 20.2998C19.278 20.2803 19.9466 20.0315 20.4628 19.5533C20.979 19.0751 21.2499 18.4522 21.2702 17.8244C21.9579 17.8004 22.6125 17.5348 23.11 17.0778C23.5212 16.6989 23.7751 16.2288 23.8733 15.7376C24.309 15.8109 24.7564 15.7849 25.1797 15.6618C25.603 15.5386 25.9904 15.3217 26.3106 15.0285C26.5659 14.796 26.7692 14.5159 26.9082 14.2054C27.0471 13.8948 27.1188 13.5603 27.1188 13.2223C27.1188 12.8843 27.0471 12.5498 26.9082 12.2393C26.7692 11.9287 26.5659 11.6486 26.3106 11.4161L25.0919 10.289L25.3407 9.39443C25.8422 7.56548 25.5875 5.62098 24.6299 3.96856C23.2149 1.51911 20.4696 0.00650705 17.5009 0.00650705H15.4191L15.1499 1.29632e-06H13.9161ZM18.0679 6.04392L22.1384 9.81243L22.1435 9.81568L25.0902 12.5449C25.186 12.6321 25.2622 12.7372 25.3143 12.8536C25.3664 12.9701 25.3932 13.0955 25.3932 13.2223C25.3932 13.3491 25.3664 13.4745 25.3143 13.591C25.2622 13.7074 25.186 13.8125 25.0902 13.8997C24.8923 14.0793 24.6304 14.1793 24.3582 14.1793C24.086 14.1793 23.8241 14.0793 23.6262 13.8997L21.3903 11.8309C21.2265 11.6798 21.0081 11.5954 20.781 11.5954C20.5539 11.5954 20.3356 11.6798 20.1717 11.8309L20.148 11.8504C20.0686 11.9233 20.0055 12.0109 19.9623 12.1079C19.9192 12.2049 19.8969 12.3093 19.8969 12.4148C19.8969 12.5203 19.9192 12.6247 19.9623 12.7217C20.0055 12.8187 20.0686 12.9063 20.148 12.9791L21.8913 14.5926C22.2975 14.9667 22.2975 15.575 21.8913 15.9507C21.7116 16.1144 21.4781 16.2128 21.231 16.2292C20.984 16.2455 20.7387 16.1787 20.5373 16.0401C20.3692 15.9235 20.1639 15.867 19.9571 15.8807C19.7502 15.8944 19.5549 15.9773 19.405 16.115C19.2585 16.2495 19.1701 16.4321 19.1572 16.6265C19.1444 16.8208 19.208 17.0127 19.3356 17.164C19.4875 17.3469 19.5625 17.5779 19.5455 17.8114C19.5286 18.0448 19.4211 18.2637 19.2442 18.4245C19.0619 18.5907 18.8244 18.6896 18.5735 18.7039C18.3227 18.7182 18.0747 18.6469 17.8732 18.5026C17.706 18.3821 17.4998 18.3221 17.2911 18.3335C17.0824 18.3448 16.8845 18.4266 16.7325 18.5644C16.5841 18.6988 16.4941 18.8821 16.4806 19.0776C16.4671 19.2731 16.5311 19.4663 16.6597 19.6184C16.8159 19.8034 16.8936 20.0384 16.8769 20.2761C16.8603 20.5139 16.7506 20.7368 16.57 20.9C16.3696 21.0827 16.104 21.1846 15.8278 21.1846C15.5516 21.1846 15.286 21.0827 15.0856 20.9L14.3528 20.2218L14.6202 19.9746C14.8755 19.742 15.0788 19.462 15.2178 19.1514C15.3567 18.8409 15.4284 18.5064 15.4284 18.1684C15.4284 17.8303 15.3567 17.4959 15.2178 17.1853C15.0788 16.8748 14.8755 16.5947 14.6202 16.3622C14.114 15.8969 13.4452 15.63 12.7448 15.614C12.7239 14.9555 12.4339 14.3314 11.9375 13.877C11.4306 13.4118 10.7611 13.1456 10.0605 13.1304C10.0396 12.4719 9.7495 11.8478 9.25313 11.3934C8.92797 11.0959 8.53377 10.8772 8.10317 10.7553C7.67257 10.6334 7.21795 10.6118 6.77694 10.6923C6.66508 10.203 6.40405 9.75683 6.02714 9.4107C5.73828 9.14522 5.39379 8.94203 5.01669 8.8147C4.6396 8.68736 4.23856 8.63881 3.84038 8.67228C3.70732 7.71922 3.81128 6.74941 4.14374 5.84243C4.4762 4.93545 5.02768 4.11713 5.75295 3.4546C6.48599 2.78146 7.36496 2.27254 8.32682 1.96435C9.28868 1.65615 10.3096 1.55632 11.3163 1.672L8.85369 3.41231C8.5386 3.63232 8.27318 3.91142 8.07345 4.23274C7.87373 4.55407 7.74384 4.91096 7.69164 5.28186C7.63944 5.65277 7.66601 6.02999 7.76973 6.39075C7.87346 6.75152 8.05219 7.08834 8.29515 7.38087C8.78674 7.97256 9.49667 8.35949 10.2774 8.46127C11.0582 8.56304 11.8497 8.37183 12.4876 7.92737L15.155 6.04555L18.0679 6.04392ZM9.85567 4.72161L14.2427 1.62646H15.1499C15.2329 1.6257 15.3159 1.62787 15.3987 1.63297H17.5009C19.8772 1.63297 22.0453 2.84468 23.1506 4.75902C23.8987 6.05368 24.095 7.55816 23.704 8.97806L23.699 8.99432L19.0275 4.65655C18.8692 4.50393 18.6543 4.41794 18.4301 4.41747H14.8757C14.6961 4.4178 14.5212 4.47305 14.3764 4.57523L11.4856 6.61481C11.2015 6.80982 10.8507 6.89333 10.5047 6.84829C10.1587 6.80326 9.84367 6.63308 9.62379 6.37247C9.52144 6.25131 9.44598 6.1113 9.40206 5.96106C9.35814 5.81082 9.34669 5.65353 9.36841 5.49888C9.39013 5.34423 9.44457 5.19548 9.52837 5.06181C9.61217 4.92813 9.72355 4.81236 9.85567 4.72161ZM10.6038 18.7254L10.6207 18.7092L11.9375 17.4893L11.9527 17.4763C12.1517 17.3029 12.4115 17.2081 12.6801 17.2108C12.9487 17.2136 13.2064 17.3136 13.4015 17.4909C13.4973 17.5782 13.5735 17.6832 13.6256 17.7997C13.6777 17.9162 13.7046 18.0416 13.7046 18.1684C13.7046 18.2951 13.6777 18.4206 13.6256 18.537C13.5735 18.6535 13.4973 18.7586 13.4015 18.8458L12.0831 20.0656C11.8851 20.2452 11.6232 20.3452 11.351 20.3452C11.0788 20.3452 10.8169 20.2452 10.619 20.0656C10.5245 19.9797 10.449 19.8764 10.3969 19.7619C10.3447 19.6474 10.317 19.524 10.3154 19.399C10.3139 19.274 10.3384 19.15 10.3877 19.0343C10.4369 18.9186 10.5115 18.8135 10.6038 18.7254ZM10.7324 16.3475L10.7155 16.3622L9.39869 17.582L9.38176 17.5967C9.18263 17.7694 8.9231 17.8636 8.65489 17.8606C8.38668 17.8576 8.12951 17.7575 7.93464 17.5804C7.83999 17.4941 7.7644 17.3903 7.71238 17.2754C7.66036 17.1604 7.63299 17.0365 7.63188 16.9111C7.63077 16.7857 7.65596 16.6614 7.70594 16.5456C7.75593 16.4297 7.82967 16.3248 7.92279 16.2369L7.93464 16.2256L9.25143 15.0057L9.26328 14.9943C9.46206 14.8196 9.72231 14.7236 9.99171 14.7257C10.2611 14.7278 10.5197 14.8279 10.7155 15.0057C10.8102 15.0917 10.886 15.1951 10.9383 15.3097C10.9906 15.4244 11.0183 15.548 11.0199 15.6732C11.0215 15.7984 10.9969 15.9226 10.9475 16.0384C10.8981 16.1543 10.8249 16.2594 10.7324 16.3475ZM8.0328 13.877L6.71432 15.0968L6.70247 15.1082C6.50369 15.2829 6.24344 15.3789 5.97404 15.3768C5.70464 15.3747 5.44606 15.2746 5.25027 15.0968C5.15455 15.0096 5.07831 14.9045 5.02622 14.7881C4.97412 14.6716 4.94726 14.5461 4.94726 14.4194C4.94726 14.2926 4.97412 14.1672 5.02622 14.0507C5.07831 13.9342 5.15455 13.8292 5.25027 13.742L6.56706 12.5221C6.76508 12.3421 7.02733 12.2417 7.29994 12.2417C7.57254 12.2417 7.83479 12.3421 8.0328 12.5221C8.12772 12.6084 8.20353 12.7123 8.2557 12.8274C8.30787 12.9426 8.33533 13.0667 8.33644 13.1922C8.33755 13.3178 8.31228 13.4423 8.26214 13.5583C8.212 13.6743 8.13803 13.7793 8.04465 13.8672L8.0328 13.877ZM4.80682 11.8943L3.49003 13.1141C3.29201 13.2942 3.02976 13.3945 2.75716 13.3945C2.48455 13.3945 2.2223 13.2942 2.02429 13.1141C1.9283 13.0269 1.85184 12.9217 1.79959 12.8051C1.74733 12.6885 1.72038 12.5629 1.72038 12.4359C1.72038 12.3089 1.74733 12.1833 1.79959 12.0667C1.85184 11.9501 1.9283 11.8449 2.02429 11.7577L3.34277 10.5378C3.5407 10.3583 3.8026 10.2582 4.0748 10.2582C4.347 10.2582 4.6089 10.3583 4.80682 10.5378C4.90281 10.6251 4.97927 10.7302 5.03152 10.8468C5.08378 10.9635 5.11073 11.0891 5.11073 11.2161C5.11073 11.343 5.08378 11.4687 5.03152 11.5853C4.97927 11.7019 4.90281 11.807 4.80682 11.8943Z" fill="#004EA2" stroke="#004EA2" stroke-width="0.4" mask="url(#path-1-inside-1_8092_1193)"/>
</svg>
