<svg width="22" height="22" viewBox="0 0 22 22" fill="none" xmlns="http://www.w3.org/2000/svg">
<path d="M19.4581 7.32345H19.4582C20.747 7.32413 21.7997 8.33608 21.801 9.5945V9.59479C21.8004 10.3878 21.3805 11.0825 20.7493 11.4877C20.8077 11.585 20.8578 11.6851 20.8993 11.7864L20.8998 11.7878C20.9829 11.9967 21.0331 12.2154 21.0331 12.4432C21.0331 12.7859 20.9931 13.1303 20.8731 13.4613C20.7751 13.7362 20.6114 14.0023 20.3753 14.2184C20.5345 14.5213 20.6297 14.8658 20.6291 15.2332M19.4581 7.32345L20.4791 15.2329M19.4581 7.32345H16.3236H16.3227H16.3218H16.3208H16.3199H16.3189H16.3178H16.3167H16.3156H16.3145H16.3133H16.3121H16.3109H16.3096H16.3083H16.3069H16.3056H16.3042H16.3027H16.3012H16.2997H16.2982H16.2966H16.2951H16.2934H16.2918H16.2901H16.2883H16.2866H16.2848H16.283H16.2812H16.2793H16.2774H16.2754H16.2735H16.2715H16.2695H16.2674H16.2653H16.2632H16.2611H16.2589H16.2567H16.2545H16.2522H16.2499H16.2476H16.2453H16.2429H16.2405H16.2381H16.2356H16.2331H16.2306H16.2281H16.2255H16.2229H16.2203H16.2177H16.215H16.2123H16.2096H16.2068H16.2041H16.2013H16.1984H16.1956H16.1927H16.1898H16.1869H16.1839H16.1809H16.1779H16.1749H16.1719H16.1688H16.1657H16.1625H16.1594H16.1562H16.153H16.1498H16.1466H16.1433H16.14H16.1367H16.1334H16.13H16.1266H16.1232H16.1198H16.1163H16.1129H16.1094H16.1058H16.1023H16.0988H16.0952H16.0916H16.0879H16.0843H16.0806H16.077H16.0732H16.0695H16.0658H16.062H16.0582H16.0544H16.0506H16.0467H16.0429H16.039H16.0351H16.0312H16.0272H16.0232H16.0193H16.0153H16.0112H16.0072H16.0032H15.9991H15.995H15.9909H15.9868H15.9826H15.9785H15.9743H15.9701H15.9659H15.9616H15.9574H15.9531H15.9488H15.9445H15.9402H15.9359H15.9316H15.9272H15.9228H15.9184H15.914H15.9096H15.9052H15.9007H15.8963H15.8918H15.8873H15.8828H15.8782H15.8737H15.8691H15.8646H15.86H15.8554H15.8508H15.8462H15.8415H15.8369H15.8322H15.8276H15.8229H15.8182H15.8135H15.8087H15.804H15.7993H15.7945H15.7897H15.7849H15.7801H15.7753H15.7705H15.7657H15.7609H15.756H15.7511H15.7463H15.7414H15.7365H15.7316H15.7267H15.7218H15.7168H15.7119H15.7069H15.702H15.697H15.692H15.687H15.682H15.677H15.672H15.667H15.662H15.6569H15.6519H15.6468H15.6418H15.6367H15.6316H15.6265H15.6214H15.6163H15.6112H15.6061H15.601H15.5959H15.5908H15.5856H15.5805H15.5753H15.5702H15.565H15.5598H15.5547H15.5495H15.5443H15.5391H15.5339H15.5287H15.5235H15.5183H15.5131H15.5079H15.5027H15.4974H15.4922H15.487H15.4818H15.4765H15.4713H15.466H15.4608H15.4555H15.4503H15.445H15.4398H15.4345H15.4292H15.424H15.4187H15.4134H15.4082H15.4029H15.3976H15.3923H15.3871H15.3818H15.3765H15.3712H15.366H15.3607H15.3554H15.3501H15.3448H15.3396H15.3343H15.329H15.3237H15.3184H15.3132H15.3079H15.3026H15.2973H15.2921H15.2868H15.2815H15.2763H15.271H15.2657H15.2605H15.2552H15.25H15.2447H15.2394H15.2342H15.2289H15.2237H15.2185H15.2132H15.208H15.2028H15.1975H15.1923H15.1871H15.1819H15.1767H15.1715H15.1663H15.1611H15.1559H15.1507H15.1455H15.1403H15.1352H15.13H15.1248H15.1197H15.1145H15.1094H15.1042H15.0991H15.094H15.0889H15.0838H15.0787H15.0736H15.0685H15.0634H15.0583H15.0532H15.0482H15.0431H15.0381H15.0331H15.028H15.023H15.018H15.013H15.008H15.003H14.998H14.9931H14.9881H14.9832H14.9782H14.9733H14.9684H14.9635H14.9586H14.9537H14.9488H14.9439H14.9391H14.9342H14.9294H14.9246H14.9197H14.9149H14.9101H14.9054H14.9006H14.8958H14.8911H14.8864H14.8816H14.8769H14.8722H14.8675H14.8629H14.8582H14.8536H14.8489H14.8443H14.8397H14.8351H14.8305H14.826H14.8214H14.8169H14.8124H14.8079H14.8034H14.7989H14.7944H14.79H14.7856H14.7811H14.7767H14.7723H14.768H14.7636H14.7593H14.755H14.7506H14.7463H14.7421H14.7378H14.7336H14.7293H14.7251H14.7209H14.7168H14.7126H14.7085H14.7043H14.7002H14.6962H14.6921H14.688H14.684H14.68H14.676H14.672H14.6681H14.6641H14.6602H14.6563H14.6524H14.6486H14.6447H14.6409H14.6371H14.6333H14.6295H14.6258H14.6221H14.6184H14.6147H14.611H14.6074H14.6038H14.6002H14.5966H14.5931H14.5895H14.586H14.5825H14.5791H14.5756H14.5722H14.5688H14.5654H14.5621H14.5587H14.5554H14.5521H14.5489H14.5456H14.5424H14.5392H14.5361H14.5329H14.5298H14.5267H14.5236H14.5206H14.5176H14.5146H14.5116H14.5086H14.5057H14.5028H14.4999H14.4971H14.4943H14.4915H14.4887H14.486H14.4832H14.4806H14.4779H14.4753H14.4726H14.4701H14.4675H14.465H14.4625H14.46H14.4576H14.4551H14.4527H14.4504H14.448H14.4457H14.4435H14.4412H14.439H14.4368H14.4346H14.4325H14.4304H14.4283H14.4263H14.4242H14.4222H14.4203H14.4184H14.4165H14.4146H14.4128H14.4109H14.4092H14.4074H14.4057H14.404H14.4024H14.4008H14.3992H14.3976H14.3961H14.3946H14.3931H14.3917H14.3903H14.3889H14.3876H14.3863H14.385H14.3838H14.3826H14.3814H14.3803H14.3792H14.3781H14.3771H14.3761H14.3751H14.3742L14.3733 7.32345L14.372 7.32346M19.4581 7.32345L14.372 7.32346M20.6291 15.2332L20.4791 15.2329M20.6291 15.2332C20.6291 15.2331 20.6291 15.233 20.6291 15.2329H20.4791M20.6291 15.2332C20.629 16.1877 20.0214 16.9984 19.1676 17.3354M20.4791 15.2329C20.4791 16.1203 19.9146 16.8784 19.1149 17.1949C19.1339 17.241 19.1515 17.2878 19.1676 17.3354M19.1676 17.3354C19.2404 17.551 19.2816 17.782 19.2816 18.0227C19.2816 19.2821 18.2273 20.292 16.9386 20.292H9.03945C8.01685 20.292 7.15596 20.1826 6.42463 19.9146M19.1676 17.3354C19.1212 17.3537 19.0741 17.3706 19.0264 17.3861C19.0937 17.5864 19.1316 17.8003 19.1316 18.0227C19.1316 19.1944 18.1494 20.142 16.9386 20.142H9.03945C8.02621 20.142 7.18466 20.0334 6.47607 19.7737M6.42463 19.9146L6.42445 19.9145L6.47607 19.7737M6.42463 19.9146C6.42469 19.9146 6.42475 19.9146 6.42481 19.9147L6.47607 19.7737M6.42463 19.9146L6.47607 19.7737M14.372 7.32346C14.2222 7.32477 14.0796 7.33616 13.9541 7.34644L13.9456 7.34714C13.821 7.35735 13.7182 7.36577 13.6331 7.36466V7.36464M14.372 7.32346L13.6331 7.36464M13.6331 7.36464H13.6311M13.6331 7.36464H13.6311M13.6311 7.36464C13.6059 7.36464 13.5833 7.36389 13.5638 7.36272C13.5637 7.35899 13.5637 7.35512 13.5637 7.35112C13.5637 7.33048 13.5663 7.30281 13.5698 7.26574C13.5703 7.26081 13.5708 7.2557 13.5713 7.25042L14.8131 4.28022L14.8131 4.28021M13.6311 7.36464L14.8131 4.28021M7.90236 7.62303C7.8283 7.79332 7.75914 7.96383 7.69488 8.12225C7.64546 8.24408 7.59894 8.35877 7.55532 8.46071L7.55494 8.4616C7.38749 8.86002 7.23388 9.11972 7.06805 9.26255L7.06741 9.26311C6.98486 9.33504 6.89621 9.38888 6.76773 9.43255C6.64023 9.47508 6.46526 9.50647 6.22152 9.50651C6.22139 9.50651 6.22127 9.50651 6.22115 9.50651L7.90236 7.62303ZM7.90236 7.62303L7.92103 7.57756L10.0423 2.41126L10.0471 2.3996L10.0494 2.39584C10.4591 1.43241 11.4187 0.849365 12.4295 0.850001L7.90236 7.62303ZM14.8131 4.28021C14.9409 3.97443 15.0015 3.65645 15.0015 3.34487M14.8131 4.28021L13.3921 1.03132M13.3921 1.03132L13.3923 1.03139C14.3915 1.42332 15.0029 2.35618 15.0015 3.34487M13.3921 1.03132C13.0788 0.908872 12.7511 0.850013 12.4296 0.850001L13.3921 1.03132ZM15.0015 3.34487L14.8515 3.34466H15.0015C15.0015 3.34473 15.0015 3.3448 15.0015 3.34487ZM19.3665 11.7789C19.2832 11.7371 19.198 11.7146 19.0941 11.7146C18.9508 11.7146 18.8128 11.6584 18.7121 11.5611C18.6114 11.4637 18.5533 11.3288 18.5533 11.1915C18.5533 11.0542 18.6114 10.9193 18.7121 10.8219C18.8127 10.7246 18.9508 10.669 19.0941 10.669H19.4594L19.3665 11.7789ZM19.3665 11.7789C19.4891 11.8395 19.6059 11.9537 19.6866 12.0873L19.3665 11.7789ZM20.4207 9.59447C20.4196 10.1002 19.9943 10.5184 19.4593 10.519H19.0941C18.9126 10.519 18.7369 10.5892 18.6078 10.7141C18.4787 10.839 18.4033 11.0124 18.4033 11.1915C18.4033 11.3705 18.4786 11.544 18.6078 11.6689C18.7366 11.7934 18.9121 11.8646 19.0941 11.8646C19.1736 11.8646 19.2358 11.8811 19.2992 11.913L19.3001 11.9134C19.3924 11.959 19.4894 12.051 19.5582 12.1648L19.5591 12.1664C19.592 12.2194 19.6167 12.2776 19.6326 12.3301C19.6492 12.385 19.6533 12.4236 19.6528 12.4379L19.6527 12.4379L19.6528 12.4437C19.654 12.762 19.5948 13.0021 19.5199 13.1291L19.5199 13.1292C19.4814 13.1947 19.4438 13.2352 19.4002 13.2671C19.3556 13.2987 19.2967 13.3282 19.196 13.3492C18.9375 13.4002 18.7313 13.5906 18.6662 13.8434L18.8115 13.8808M20.4207 9.59447L11.1853 2.85529C11.3963 2.3509 11.899 2.04562 12.4295 2.04502M20.4207 9.59447C20.4206 9.08792 19.9931 8.66864 19.4583 8.66919H19.4581H16.3236H16.3227H16.3218H16.3209H16.3199H16.3189H16.3179H16.3168H16.3157H16.3145H16.3134H16.3121H16.3109H16.3096H16.3083H16.307H16.3056H16.3042H16.3028H16.3013H16.2998H16.2983H16.2967H16.2951H16.2935H16.2918H16.2901H16.2884H16.2866H16.2849H16.283H16.2812H16.2793H16.2774H16.2755H16.2735H16.2715H16.2695H16.2674H16.2654H16.2632H16.2611H16.2589H16.2567H16.2545H16.2522H16.25H16.2476H16.2453H16.2429H16.2405H16.2381H16.2357H16.2332H16.2307H16.2281H16.2256H16.223H16.2204H16.2177H16.215H16.2123H16.2096H16.2069H16.2041H16.2013H16.1985H16.1956H16.1927H16.1898H16.1869H16.184H16.181H16.178H16.1749H16.1719H16.1688H16.1657H16.1626H16.1594H16.1563H16.1531H16.1498H16.1466H16.1433H16.14H16.1367H16.1334H16.13H16.1267H16.1232H16.1198H16.1164H16.1129H16.1094H16.1059H16.1024H16.0988H16.0952H16.0916H16.088H16.0843H16.0807H16.077H16.0733H16.0696H16.0658H16.062H16.0583H16.0545H16.0506H16.0468H16.0429H16.039H16.0351H16.0312H16.0273H16.0233H16.0193H16.0153H16.0113H16.0073H16.0032H15.9991H15.995H15.9909H15.9868H15.9827H15.9785H15.9743H15.9701H15.9659H15.9617H15.9574H15.9532H15.9489H15.9446H15.9403H15.9359H15.9316H15.9272H15.9229H15.9185H15.9141H15.9096H15.9052H15.9008H15.8963H15.8918H15.8873H15.8828H15.8783H15.8737H15.8692H15.8646H15.86H15.8554H15.8508H15.8462H15.8416H15.8369H15.8323H15.8276H15.8229H15.8182H15.8135H15.8088H15.804H15.7993H15.7945H15.7898H15.785H15.7802H15.7754H15.7706H15.7657H15.7609H15.756H15.7512H15.7463H15.7414H15.7365H15.7316H15.7267H15.7218H15.7169H15.7119H15.707H15.702H15.697H15.6921H15.6871H15.6821H15.6771H15.6721H15.667H15.662H15.657H15.6519H15.6469H15.6418H15.6367H15.6317H15.6266H15.6215H15.6164H15.6113H15.6062H15.6011H15.5959H15.5908H15.5857H15.5805H15.5754H15.5702H15.565H15.5599H15.5547H15.5495H15.5443H15.5392H15.534H15.5288H15.5236H15.5184H15.5131H15.5079H15.5027H15.4975H15.4923H15.487H15.4818H15.4766H15.4713H15.4661H15.4608H15.4556H15.4503H15.4451H15.4398H15.4345H15.4293H15.424H15.4187H15.4135H15.4082H15.4029H15.3977H15.3924H15.3871H15.3818H15.3766H15.3713H15.366H15.3607H15.3554H15.3502H15.3449H15.3396H15.3343H15.329H15.3238H15.3185H15.3132H15.3079H15.3027H15.2974H15.2921H15.2868H15.2816H15.2763H15.271H15.2658H15.2605H15.2553H15.25H15.2447H15.2395H15.2342H15.229H15.2237H15.2185H15.2133H15.208H15.2028H15.1976H15.1924H15.1871H15.1819H15.1767H15.1715H15.1663H15.1611H15.1559H15.1507H15.1455H15.1404H15.1352H15.13H15.1249H15.1197H15.1146H15.1094H15.1043H15.0992H15.094H15.0889H15.0838H15.0787H15.0736H15.0685H15.0634H15.0584H15.0533H15.0482H15.0432H15.0381H15.0331H15.0281H15.023H15.018H15.013H15.008H15.0031H14.9981H14.9931H14.9881H14.9832H14.9783H14.9733H14.9684H14.9635H14.9586H14.9537H14.9488H14.944H14.9391H14.9343H14.9294H14.9246H14.9198H14.915H14.9102H14.9054H14.9006H14.8959H14.8911H14.8864H14.8817H14.877H14.8723H14.8676H14.8629H14.8583H14.8536H14.849H14.8444H14.8398H14.8352H14.8306H14.826H14.8215H14.8169H14.8124H14.8079H14.8034H14.7989H14.7945H14.79H14.7856H14.7812H14.7768H14.7724H14.768H14.7637H14.7593H14.755H14.7507H14.7464H14.7421H14.7379H14.7336H14.7294H14.7252H14.721H14.7168H14.7127H14.7085H14.7044H14.7003H14.6962H14.6921H14.6881H14.684H14.68H14.676H14.6721H14.6681H14.6642H14.6602H14.6563H14.6525H14.6486H14.6448H14.6409H14.6371H14.6333H14.6296H14.6258H14.6221H14.6184H14.6147H14.6111H14.6074H14.6038H14.6002H14.5966H14.5931H14.5896H14.5861H14.5826H14.5791H14.5757H14.5722H14.5688H14.5655H14.5621H14.5588H14.5555H14.5522H14.5489H14.5457H14.5425H14.5393H14.5361H14.533H14.5298H14.5267H14.5237H14.5206H14.5176H14.5146H14.5116H14.5087H14.5058H14.5029H14.5H14.4971H14.4943H14.4915H14.4888H14.486H14.4833H14.4806H14.4779H14.4753H14.4727H14.4701H14.4675H14.465H14.4625H14.46H14.4576H14.4552H14.4528H14.4504H14.4481H14.4458H14.4435H14.4412H14.439H14.4368H14.4347H14.4325H14.4304H14.4283H14.4263H14.4243H14.4223H14.4203H14.4184H14.4165H14.4146H14.4128H14.411H14.4092H14.4075H14.4058H14.4041H14.4024H14.4008H14.3992H14.3976H14.3961H14.3946H14.3932H14.3917H14.3903H14.389H14.3876H14.3863H14.3851H14.3838H14.3826H14.3815H14.3803H14.3792H14.3782H14.3771H14.3761H14.3751H14.3742H14.3733H14.371V8.66918C14.307 8.66817 14.2195 8.67535 14.1052 8.68473C14.0936 8.68568 14.0817 8.68666 14.0696 8.68765C13.9419 8.69805 13.7914 8.70941 13.6321 8.71038L13.6305 8.71039C13.4822 8.70972 13.3147 8.70071 13.1324 8.65384C12.9517 8.60818 12.7441 8.51847 12.5698 8.35297C12.4536 8.24399 12.36 8.10752 12.298 7.9607M20.4207 9.59447L12.298 7.9607M18.8115 13.8808C18.7605 14.0768 18.8296 14.2815 18.9909 14.4101M18.8115 13.8808L18.6663 13.843C18.6002 14.0975 18.6906 14.3626 18.8974 14.5274L18.9909 14.4101M18.8115 13.8808C18.8618 13.6854 19.0218 13.5362 19.2258 13.4962C19.3458 13.4713 19.4246 13.4338 19.4878 13.3889L19.3988 15.2329C19.3988 14.9021 19.2426 14.6137 18.9909 14.4101M18.9909 14.4101L18.8966 14.5268C19.1173 14.7052 19.2487 14.9524 19.2488 15.2326C19.2477 15.7384 18.823 16.1568 18.2865 16.1579H18.0293C17.7461 16.1579 17.4872 16.3265 17.3849 16.5904C17.2812 16.8545 17.3577 17.1501 17.574 17.3355C17.7794 17.513 17.9006 17.752 17.9006 18.0226C17.9001 18.528 17.4751 18.946 16.9384 18.9471H9.0395H9.03938C8.21944 18.9477 7.57613 18.8653 7.08813 18.7152L7.08808 18.7152C6.72157 18.6026 6.44473 18.4555 6.22336 18.2756C6.16483 18.2272 6.10972 18.1745 6.05625 18.1184V10.8618C6.10483 10.8557 6.15913 10.8521 6.22119 10.8521C6.70615 10.8521 7.13571 10.7673 7.50347 10.5872C7.7782 10.4536 8.00768 10.2695 8.18966 10.0661L8.19003 10.0657C8.46109 9.76051 8.63506 9.42032 8.78171 9.0885L8.7818 9.0883C8.85457 8.92301 8.92204 8.75617 8.98864 8.59148L8.99025 8.58751C9.05709 8.42223 9.12312 8.25907 9.19426 8.09746L9.19861 8.08901L9.19911 8.08926L9.20403 8.07727L11.3236 2.91318C11.3237 2.91304 11.3238 2.91289 11.3238 2.91275C11.5098 2.46862 11.955 2.19556 12.4297 2.19502L12.4295 2.04502M12.4295 2.04502C12.5967 2.04502 12.767 2.07563 12.9323 2.14055C13.455 2.34406 13.7706 2.83036 13.7712 3.34474M12.4295 2.04502V2.19502C12.5783 2.19502 12.73 2.22225 12.8774 2.28016L12.8778 2.28033C13.3427 2.46133 13.6207 2.89203 13.6212 3.34493M13.7712 3.34474H13.6212C13.6212 3.3448 13.6212 3.34487 13.6212 3.34493M13.7712 3.34474C13.7712 3.50643 13.7403 3.67059 13.6732 3.83103L13.7712 3.34474ZM13.6212 3.34493C13.6212 3.48714 13.594 3.63151 13.5348 3.77315L13.5348 3.77319L12.2549 6.83504M13.6212 3.34493L12.2549 6.83504M12.2549 6.83504C12.2548 6.83528 12.2547 6.83552 12.2546 6.83576C12.2317 6.88931 12.2176 6.9429 12.2095 6.99688L12.2093 6.99841C12.1924 7.12028 12.1834 7.23712 12.1834 7.3512C12.1834 7.56024 12.2138 7.7656 12.298 7.9607M12.2549 6.83504L12.298 7.9607M5.90621 19.6786V19.5071C5.95544 19.535 6.00541 19.5621 6.05621 19.5884V19.7564C6.00531 19.7313 5.95533 19.7053 5.90621 19.6786ZM20.6205 11.5647C20.5949 11.5221 20.5675 11.48 20.5384 11.4387C20.5825 11.4145 20.6256 11.3889 20.6677 11.3618L20.6205 11.5647Z" fill="#6E6E6E" stroke="#6E6E6E" stroke-width="0.3"/>
</svg>
