<svg width="21" height="26" viewBox="0 0 21 26" fill="none" xmlns="http://www.w3.org/2000/svg">
<path d="M19.25 9.07799H12.25V1.93513H1.75V23.3637H19.25V9.07799ZM18.5255 7.29227L14 2.67441V7.29227H18.5255ZM0.875 0.149414H14L21 7.29227V24.2566C21 24.4934 20.9078 24.7205 20.7437 24.8879C20.5796 25.0553 20.3571 25.1494 20.125 25.1494H0.875C0.642936 25.1494 0.420376 25.0553 0.256282 24.8879C0.0921874 24.7205 0 24.4934 0 24.2566V1.04227C0 0.805471 0.0921874 0.578369 0.256282 0.410926C0.420376 0.243483 0.642936 0.149414 0.875 0.149414ZM5.25 12.6494H15.75V14.4351H5.25V12.6494ZM5.25 7.29227H9.625V9.07799H5.25V7.29227ZM5.25 18.0066H15.75V19.7923H5.25V18.0066Z" fill="#004EA2"/>
</svg>
