<svg width="25" height="25" viewBox="0 0 25 25" fill="none" xmlns="http://www.w3.org/2000/svg">
<path d="M3.67647 0.149414C2.70141 0.149414 1.76629 0.544502 1.07681 1.24776C0.387341 1.95103 0 2.90485 0 3.89941V17.3994C0 18.394 0.387341 19.3478 1.07681 20.0511C1.76629 20.7543 2.70141 21.1494 3.67647 21.1494H10.3029C10.2618 20.64 10.3321 20.1277 10.5088 19.6494H3.67647C3.09143 19.6494 2.53036 19.4124 2.11668 18.9904C1.70299 18.5684 1.47059 17.9962 1.47059 17.3994V7.64941H7.47941C8.06425 7.64889 8.62495 7.41149 9.03823 6.98941L11.3338 4.64941H19.8529C20.438 4.64941 20.9991 4.88647 21.4127 5.30842C21.8264 5.73038 22.0588 6.30268 22.0588 6.89941V12.1704C22.5985 12.2304 23.1 12.4254 23.5294 12.7179V6.89941C23.5294 5.90485 23.1421 4.95103 22.4526 4.24776C21.7631 3.5445 20.828 3.14941 19.8529 3.14941H11.3338L9.14706 0.918914C8.90804 0.674941 8.62422 0.481407 8.31184 0.349371C7.99945 0.217336 7.66462 0.149389 7.32647 0.149414H3.67647ZM1.47059 3.89941C1.47059 3.30268 1.70299 2.73038 2.11668 2.30842C2.53036 1.88647 3.09143 1.64941 3.67647 1.64941H7.32647C7.61889 1.64968 7.89924 1.76838 8.10588 1.97941L9.98823 3.89941L8 5.93041C7.93159 6.00002 7.8504 6.05518 7.76107 6.09276C7.67175 6.13034 7.57604 6.14959 7.47941 6.14941H1.47059V3.89941ZM18.3824 14.7744C18.3824 15.1191 18.3158 15.4605 18.1865 15.779C18.0571 16.0974 17.8676 16.3868 17.6286 16.6306C17.3896 16.8743 17.1059 17.0677 16.7937 17.1996C16.4814 17.3315 16.1468 17.3994 15.8088 17.3994C15.4709 17.3994 15.1362 17.3315 14.824 17.1996C14.5117 17.0677 14.228 16.8743 13.9891 16.6306C13.7501 16.3868 13.5605 16.0974 13.4312 15.779C13.3019 15.4605 13.2353 15.1191 13.2353 14.7744C13.2353 14.0782 13.5064 13.4105 13.9891 12.9183C14.4717 12.426 15.1263 12.1494 15.8088 12.1494C16.4914 12.1494 17.146 12.426 17.6286 12.9183C18.1112 13.4105 18.3824 14.0782 18.3824 14.7744ZM20.5882 20.8689C20.5882 22.5039 19.3279 24.1494 16.1765 24.1494C13.025 24.1494 11.7647 22.5084 11.7647 20.8689C11.7647 19.7814 12.6118 18.8994 13.6559 18.8994H18.6971C19.7412 18.8994 20.5882 19.7814 20.5882 20.8689ZM21.2897 23.3994H21.3235C23.95 23.3994 25 21.9879 25 20.5869C25 19.6554 24.2941 18.8994 23.425 18.8994H21.4647C21.8412 19.4619 22.0588 20.1429 22.0588 20.8689C22.0588 21.7419 21.8147 22.6284 21.2897 23.3994ZM23.5294 15.5244C23.5294 16.0217 23.3357 16.4986 22.991 16.8502C22.6463 17.2019 22.1787 17.3994 21.6912 17.3994C21.2036 17.3994 20.7361 17.2019 20.3913 16.8502C20.0466 16.4986 19.8529 16.0217 19.8529 15.5244C19.8529 15.0271 20.0466 14.5502 20.3913 14.1986C20.7361 13.847 21.2036 13.6494 21.6912 13.6494C22.1787 13.6494 22.6463 13.847 22.991 14.1986C23.3357 14.5502 23.5294 15.0271 23.5294 15.5244Z" fill="#004EA2"/>
</svg>
