<svg width="30" height="28" viewBox="0 0 30 28" fill="none" xmlns="http://www.w3.org/2000/svg">
<path d="M29.1015 17.6318C29.1015 16.5715 28.3429 15.6926 27.3425 15.4915V14.1859C27.3425 11.5677 25.2128 9.43809 22.5946 9.43809C19.9765 9.43809 17.8466 11.5677 17.8466 14.1859V15.4915C16.8461 15.6926 16.0875 16.5715 16.0875 17.6318V24.7761C16.0875 25.9837 17.0698 26.966 18.2774 26.966H26.9117C28.1192 26.966 29.1015 25.9837 29.1015 24.7761V17.6318ZM22.5946 10.8468C24.4357 10.8468 25.9338 12.3448 25.9338 14.1859V15.4416H19.2553V14.1859C19.2553 12.3448 20.7533 10.8468 22.5946 10.8468ZM27.6928 24.7761C27.6928 25.2066 27.3422 25.5573 26.9117 25.5573H18.2774C17.8469 25.5573 17.4962 25.2066 17.4962 24.7761V17.6318C17.4962 17.2009 17.8469 16.8503 18.2774 16.8503H26.9117C27.3421 16.8503 27.6928 17.2009 27.6928 17.6318V24.7761Z" fill="#004EA2" stroke="#004EA2" stroke-width="0.2"/>
<path d="M22.5914 18.4015C21.6199 18.4015 20.8297 19.1916 20.8297 20.1629C20.8297 20.8839 21.2665 21.5011 21.887 21.7732V23.8366C21.887 24.2255 22.2024 24.541 22.5914 24.541C22.9804 24.541 23.2957 24.2255 23.2957 23.8366V21.7732C23.9161 21.501 24.3528 20.8838 24.3528 20.1629C24.3528 19.1917 23.5626 18.4015 22.5914 18.4015Z" fill="#004EA2" stroke="#004EA2" stroke-width="0.2"/>
<path d="M19.8406 8.5989L19.8697 8.69457C20.2418 8.58135 20.4516 8.18758 20.3381 7.81543C19.7613 5.92159 18.9341 4.35095 17.9451 3.2004C20.2725 4.07646 22.2826 5.69619 23.6549 7.8879C23.8613 8.21783 24.2957 8.31746 24.6257 8.11118L24.6257 8.11116C24.9557 7.90474 25.0553 7.47006 24.849 7.14029L24.849 7.14026C22.4611 3.32678 18.3521 1.04941 13.8583 1.04941C6.71304 1.04941 0.9 6.86246 0.9 14.0078C0.9 21.1531 6.71304 26.9658 13.8583 26.9658C14.2473 26.9658 14.5626 26.6504 14.5626 26.2614V14.7121H15.6991C16.0881 14.7121 16.4035 14.3967 16.4035 14.0078C16.4035 13.6187 16.0881 13.3034 15.6991 13.3034H14.5626V2.54921C15.4385 2.76016 16.2846 3.35973 17.0357 4.29391C17.8206 5.27007 18.4972 6.60609 18.9906 8.22607L18.9906 8.22612C19.1041 8.59807 19.498 8.80879 19.8699 8.69448L19.8406 8.5989ZM19.8406 8.5989C20.1598 8.50178 20.3398 8.16394 20.2425 7.84459M19.8406 8.5989C19.5218 8.69686 19.1837 8.51628 19.0862 8.19694L20.2425 7.84459M20.2425 7.84459C19.6453 5.88387 18.7798 4.27689 17.7489 3.12859L20.2425 7.84459ZM9.6006 6.05339C10.5418 4.15364 11.7934 2.87487 13.1539 2.54383V13.3034H7.92949C8.02116 10.5266 8.64582 7.98048 9.6006 6.05339ZM6.52058 13.3034H2.34508C2.62483 8.69871 5.60623 4.82003 9.72804 3.23423C7.86867 5.42117 6.64423 9.06445 6.52058 13.3034ZM6.52058 14.7121C6.64423 18.9509 7.86856 22.594 9.72791 24.7809C5.60616 23.1951 2.62483 19.3165 2.34508 14.7121H6.52058ZM13.1539 14.7121V25.4714C11.7934 25.1403 10.5419 23.8616 9.60063 21.9618C8.64585 20.0348 8.0212 17.4887 7.9295 14.7121H13.1539Z" fill="#004EA2" stroke="#004EA2" stroke-width="0.2"/>
</svg>
