<svg width="13" height="17" viewBox="0 0 13 17" fill="#ed6c00" xmlns="http://www.w3.org/2000/svg">
<path d="M10.0272 15.8422L10.0277 15.8427L10.9 16V16.15C10.9001 16.15 10.9001 16.15 10.9001 16.15C11.2245 16.15 11.5396 16.0403 11.7751 15.8396C12.0114 15.6382 12.15 15.3594 12.15 15.0625V1.9375C12.15 1.64064 12.0114 1.36184 11.7751 1.16043C11.5395 0.95964 11.2245 0.85 10.9 0.85H2.10024C1.77578 0.85 1.46072 0.95964 1.22514 1.16043C0.988822 1.36184 0.850262 1.64064 0.850262 1.9375V15.0279C0.844966 15.2533 0.92008 15.4725 1.06167 15.6562C1.20334 15.8401 1.4044 15.9797 1.63565 16.06C1.8669 16.1403 2.12028 16.1587 2.36312 16.1133C2.60501 16.0681 2.82821 15.9611 3.00225 15.8033L6.49991 12.8314L10.0272 15.8422ZM6.59743 11.1983L6.50056 11.1158L6.40333 11.1979L2.25024 14.7066V2.0875H10.75V14.7376L6.59743 11.1983Z" fill="#ed6c00" stroke="#ed6c00" stroke-width="0.3"/>
</svg>
