<svg width="26" height="26" viewBox="0 0 26 26" fill="none" xmlns="http://www.w3.org/2000/svg">
<path d="M17.7477 18.944C20.5673 18.944 21.9765 18.944 22.8534 18.0683C23.729 17.1926 23.729 15.7822 23.729 12.9626V8.17759H2.19626V12.9626C2.19626 15.7822 2.19626 17.1926 3.07193 18.0683C3.9476 18.944 5.35799 18.944 8.17759 18.944M17.7477 18.944H8.17759M17.7477 18.944V22.5328M8.17759 18.944V22.5328M4.58879 18.944V24.9253M21.3365 18.944V24.9253M1 8.17759H3.17481M22.7505 8.17759H24.9253M6.98132 5.78506C6.98132 3.5289 6.98132 2.40202 7.68233 1.70101C8.38335 1 9.51023 1 11.7664 1H14.1589C16.4151 1 17.5419 1 18.243 1.70101C18.944 2.40202 18.944 3.5289 18.944 5.78506V8.17759H6.98132V5.78506Z" stroke="white" stroke-width="2" stroke-linecap="round" stroke-linejoin="round"/>
</svg>
