<svg fill="none" height="15" viewBox="0 0 15 15" width="15" xmlns="http://www.w3.org/2000/svg"><g fill="#151515"><path clip-rule="evenodd" d="m2.07216 7.5c.05498.09308.12795.21129.21886.34765.23645.35467.59113.8274 1.06253 1.2988.9455.94545 2.32582 1.85355 4.14644 1.85355s3.20091-.9081 4.14641-1.85355c.4714-.4714.8261-.94413 1.0626-1.2988.0909-.13636.1638-.25458.2188-.34765-.055-.09308-.1279-.21129-.2188-.34765-.2365-.35467-.5912-.8274-1.0626-1.2988-.9455-.9455-2.32579-1.85355-4.14641-1.85355s-3.20094.90805-4.14644 1.85355c-.4714.4714-.82608.94413-1.06253 1.2988-.09091.13636-.16388.25457-.21886.34765zm11.42784 0c.4472-.22361.447-.224.447-.224l-.0009-.00174-.0018-.00359-.0059-.01147c-.0049-.00951-.0118-.02273-.0207-.03942-.0178-.03336-.0435-.08059-.0773-.13972-.0676-.1182-.1673-.28432-.2994-.48241-.2635-.39533-.6588-.9226-1.1875-1.4512-1.0545-1.0545-2.67413-2.14645-4.85351-2.14645s-3.79905 1.09195-4.85355 2.14645c-.52861.5286-.92392 1.05587-1.18747 1.4512-.13206.19809-.23181.36421-.29935.48241-.03379.05913-.05957.10636-.07737.13972-.00889.01669-.0158.02991-.02071.03942l-.00587.01147-.00182.00359-.00063.00125s-.00044.00088.44677.22449l-.44677-.22449c-.07038.14076-.070823.30733-.00044.4481l.44721-.22361c-.44721.22361-.44721.22361-.44721.22361l.00107.00213.00182.00359.00587.01147c.00491.00951.01182.02273.02071.03942.0178.03336.04358.08059.07737.13972.06754.1182.16729.28432.29935.48241.26355.39533.65886.9226 1.18747 1.4512 1.0545 1.05455 2.67417 2.14645 4.85355 2.14645s3.79901-1.0919 4.85351-2.14645c.5287-.5286.924-1.05587 1.1875-1.4512.1321-.19809.2318-.36421.2994-.48241.0338-.05913.0595-.10636.0773-.13972.0089-.01669.0158-.02991.0207-.03942l.0059-.01147.0018-.00359.0007-.00125s.0004-.00088-.4468-.22449zm0 0 .4468.22449c.0703-.14076.0706-.30773.0002-.44849z" fill-rule="evenodd"/><path d="m7.49999 9c.82843 0 1.5-.67157 1.5-1.5s-.67157-1.5-1.5-1.5c-.82842 0-1.5.67157-1.5 1.5s.67158 1.5 1.5 1.5z"/></g></svg>