<svg width="27" height="26" viewBox="0 0 27 26" fill="none" xmlns="http://www.w3.org/2000/svg">
<path d="M25.3126 11.9599C25.5674 12.0467 25.7959 12.1682 25.9981 12.3244C26.2002 12.4807 26.3804 12.663 26.5386 12.8713C26.6968 13.0796 26.811 13.3053 26.8814 13.5484C26.9517 13.7914 26.9912 14.0475 27 14.3166V17.6497C27 18.6827 26.8023 19.6549 26.4068 20.5663C26.0113 21.4777 25.4664 22.2719 24.7721 22.949C24.0778 23.626 23.2736 24.1599 22.3596 24.5505C21.4455 24.9411 20.4612 25.1407 19.4066 25.1494C18.4398 25.1494 17.5258 24.9802 16.6645 24.6416C15.8032 24.3031 15.0298 23.8344 14.3443 23.2354C13.6587 22.6365 13.1007 21.9334 12.67 21.1262C12.2394 20.3189 11.9669 19.4379 11.8527 18.483H1.68853C1.45123 18.483 1.23152 18.4396 1.02938 18.3528C0.827237 18.266 0.651463 18.1488 0.502055 18.0013C0.352647 17.8537 0.229605 17.6758 0.132929 17.4675C0.0362534 17.2591 -0.00769012 17.0421 0.00109859 16.8164V1.81709C0.00109859 1.58273 0.0450421 1.36572 0.132929 1.16608C0.220816 0.966436 0.339464 0.792832 0.488872 0.645269C0.63828 0.497706 0.818448 0.376184 1.02938 0.280702C1.24031 0.18522 1.46002 0.141819 1.68853 0.150499H23.6251C23.8624 0.150499 24.0822 0.1939 24.2843 0.280702C24.4864 0.367504 24.6622 0.484686 24.8116 0.632249C24.961 0.779812 25.0841 0.957756 25.1807 1.16608C25.2774 1.3744 25.3214 1.59141 25.3126 1.81709V11.9599ZM11.8131 15.1498C11.8131 14.6898 11.901 14.2601 12.0768 13.8608C12.2526 13.4616 12.4942 13.1057 12.8018 12.7932C13.1095 12.4807 13.4654 12.242 13.8697 12.0771C14.274 11.9121 14.7134 11.8253 15.188 11.8167V7.65017C15.188 7.30297 15.2539 6.97746 15.3857 6.67365C15.5176 6.36985 15.6977 6.1051 15.9262 5.87942C16.1547 5.65373 16.4228 5.47579 16.7304 5.34559C17.038 5.21538 17.3676 5.15028 17.7191 5.15028C18.0707 5.15028 18.3959 5.21538 18.6947 5.34559C18.9935 5.47579 19.2615 5.65373 19.4988 5.87942C19.7361 6.1051 19.9163 6.36985 20.0393 6.67365C20.1624 6.97746 20.2283 7.30297 20.2371 7.65017V9.73342C20.2371 10.4192 20.2415 11.1136 20.2503 11.8167H23.6251V1.81709H1.68853V16.8164H11.8131V15.1498ZM25.3126 14.3166C25.3126 14.0909 25.2291 13.8956 25.0621 13.7306C24.8951 13.5657 24.6974 13.4833 24.4689 13.4833H18.5628V7.65017C18.5628 7.42449 18.4794 7.22918 18.3124 7.06426C18.1454 6.89934 17.9476 6.81688 17.7191 6.81688C17.4906 6.81688 17.2929 6.89934 17.1259 7.06426C16.9589 7.22918 16.8754 7.42449 16.8754 7.65017V17.6497C16.8754 17.8754 16.7919 18.0707 16.6249 18.2357C16.458 18.4006 16.2602 18.483 16.0317 18.483C15.8032 18.483 15.6054 18.4006 15.4385 18.2357C15.2715 18.0707 15.188 17.8754 15.188 17.6497V13.4833C14.9507 13.4833 14.731 13.5267 14.5288 13.6135C14.3267 13.7003 14.1509 13.8174 14.0015 13.965C13.8521 14.1126 13.7291 14.2905 13.6324 14.4988C13.5357 14.7072 13.4918 14.9242 13.5006 15.1498V17.6497C13.5006 18.457 13.6544 19.2122 13.962 19.9153C14.2696 20.6184 14.6914 21.2347 15.2275 21.7641C15.7636 22.2936 16.3876 22.7103 17.0995 23.0141C17.8114 23.3179 18.5804 23.4741 19.4066 23.4828C20.2239 23.4828 20.9885 23.3309 21.7004 23.0271C22.4123 22.7233 23.0363 22.3067 23.5724 21.7772C24.1085 21.2477 24.5304 20.6314 24.838 19.9283C25.1456 19.2252 25.3038 18.4657 25.3126 17.6497V14.3166Z" fill="#004EA2"/>
</svg>
