<svg width="24" height="25" viewBox="0 0 24 25" fill="none" xmlns="http://www.w3.org/2000/svg">
<path d="M10.8 6.14941H13.2V8.54941H10.8V6.14941ZM10.8 10.9494H13.2V18.1494H10.8V10.9494ZM12 0.149414C5.376 0.149414 0 5.52541 0 12.1494C0 18.7734 5.376 24.1494 12 24.1494C18.624 24.1494 24 18.7734 24 12.1494C24 5.52541 18.624 0.149414 12 0.149414ZM12 21.7494C6.708 21.7494 2.4 17.4414 2.4 12.1494C2.4 6.85741 6.708 2.54941 12 2.54941C17.292 2.54941 21.6 6.85741 21.6 12.1494C21.6 17.4414 17.292 21.7494 12 21.7494Z" fill="#ED6C00"/>
</svg>
