<svg fill="none" height="24" viewBox="0 0 24 24" width="24" xmlns="http://www.w3.org/2000/svg"><g stroke="#004ea2" stroke-linecap="round" stroke-linejoin="round" stroke-width="1.5"><path d="m19.79 14.9299c-2.06 2.05-5.01 2.68-7.6 1.87l-4.70998 4.7c-.34.35-1.01.56-1.49.49l-2.18-.3c-.72-.1-1.39-.78-1.5-1.5l-.3-2.18c-.07-.48.16-1.15.49-1.49l4.7-4.7c-.8-2.59995-.18-5.54995 1.88-7.59995 2.94998-2.95 7.73998-2.95 10.69998 0s2.96 7.75995.01 10.70995z" stroke-miterlimit="10"/><path d="m6.89001 17.49 2.3 2.3" stroke-miterlimit="10"/><path d="m14.5 11c.8284 0 1.5-.6716 1.5-1.5 0-.82843-.6716-1.5-1.5-1.5s-1.5.67157-1.5 1.5c0 .8284.6716 1.5 1.5 1.5z"/></g></svg>