<svg width="17" height="20" viewBox="0 0 17 20" fill="none" xmlns="http://www.w3.org/2000/svg">
<path fill-rule="evenodd" clip-rule="evenodd" d="M16.7875 4.91429L12.1408 0.2L11.645 0H0.708333L0 0.714286V8.57143H1.41667V1.42857H9.91667V6.42857L10.625 7.14286H15.5833V8.57143H17V5.42857L16.7875 4.91429ZM11.3333 5.71429V1.42857L15.5833 5.71429H11.3333ZM0.708333 10L0 10.7143V19.2857L0.708333 20H16.2917L17 19.2857V10.7143L16.2917 10H0.708333ZM15.5833 17.1429V18.5714H1.41667V11.4286H15.5833V17.1429ZM4.25 15.7143H3.79667V17.1429H2.83333V12.8571H4.335C5.3975 12.8571 5.93583 13.3714 5.93583 14.2857C5.93858 14.48 5.89946 14.6726 5.82119 14.8502C5.74293 15.0278 5.62737 15.1861 5.4825 15.3143C5.13142 15.5902 4.69479 15.732 4.25 15.7143ZM4.165 13.6429H3.79667V14.9714H4.165C4.675 14.9714 4.93 14.7429 4.93 14.3C4.93 13.8571 4.675 13.6429 4.165 13.6429ZM9.91667 16.5429C10.1259 16.3351 10.2895 16.0852 10.3969 15.8096C10.5042 15.534 10.553 15.2387 10.54 14.9429C10.54 13.5143 9.78917 12.8571 8.27333 12.8571H6.77167V17.1429H8.27333C8.573 17.1575 8.87256 17.112 9.15465 17.009C9.43675 16.906 9.69576 16.7476 9.91667 16.5429ZM7.72083 16.3571V13.6429H8.18833C8.36902 13.6313 8.55016 13.657 8.72066 13.7184C8.89117 13.7798 9.04746 13.8756 9.18 14C9.30076 14.1267 9.39449 14.277 9.4554 14.4416C9.51632 14.6062 9.54312 14.7817 9.53417 14.9571C9.55539 15.3337 9.42807 15.7034 9.18 15.9857C9.0503 16.1109 8.89686 16.2083 8.72887 16.2721C8.56089 16.3359 8.38185 16.3649 8.2025 16.3571H7.72083ZM14.025 15.4857H12.6508V17.1429H11.6875V12.8571H14.1525V13.6429H12.6508V14.7H14.025V15.4857Z" fill="#ED6C00"/>
</svg>
