<svg width="22" height="16" viewBox="0 0 22 16" fill="none" xmlns="http://www.w3.org/2000/svg">
<path d="M17.1905 4.15C17.0623 5.92931 15.7423 7.3 14.303 7.3C12.8636 7.3 11.5415 5.92975 11.4155 4.15C11.2842 2.29894 12.5692 1 14.303 1C16.0368 1 17.3217 2.33262 17.1905 4.15Z" stroke="#ED6C00" stroke-width="1.4" stroke-linecap="round" stroke-linejoin="round"/>
<path d="M14.2998 10.1001C11.4486 10.1001 8.70683 11.5163 8.01995 14.2743C7.92895 14.6392 8.15776 15.0001 8.5327 15.0001H20.0674C20.4423 15.0001 20.6698 14.6392 20.5801 14.2743C19.8933 11.4721 17.1514 10.1001 14.2998 10.1001Z" stroke="#ED6C00" stroke-width="1.4" stroke-miterlimit="10"/>
<path d="M8.35178 4.93478C8.24941 6.35578 7.18278 7.4749 6.03303 7.4749C4.88328 7.4749 3.81491 6.35621 3.71428 4.93478C3.60972 3.45646 4.64791 2.3999 6.03303 2.3999C7.41816 2.3999 8.45635 3.48359 8.35178 4.93478Z" stroke="#ED6C00" stroke-width="1.4" stroke-linecap="round" stroke-linejoin="round"/>
<path d="M8.61293 10.1875C7.82324 9.82565 6.95349 9.68652 6.03168 9.68652C3.75668 9.68652 1.5648 10.8175 1.01574 13.0203C0.943553 13.3116 1.12643 13.6 1.42568 13.6H6.33793" stroke="#ED6C00" stroke-width="1.4" stroke-miterlimit="10" stroke-linecap="round"/>
</svg>
