<svg width="23" height="25" viewBox="0 0 23 25" fill="none" xmlns="http://www.w3.org/2000/svg">
<path d="M21.2072 23.9017L21.2071 23.9017L20.5363 24.7392L18.7685 23.4784L19.4324 22.6497C20.2407 21.6414 20.6789 20.4111 20.6793 19.1454C20.6798 17.8797 20.2425 16.6491 19.4348 15.6403L19.4348 15.6403L18.771 14.8116L20.5399 13.5519L21.2107 14.3893C22.3079 15.76 22.9006 17.4301 22.9 19.1461C22.8994 20.8621 22.3054 22.5317 21.2072 23.9017ZM2.32111 21.4293V21.5293H2.42111H13.2766V23.6131H0.1V21.4293C0.1 19.6407 0.853198 17.9241 2.196 16.6575C3.53899 15.3907 5.36167 14.678 7.26333 14.678H13.2161V16.7618H7.26333C5.95439 16.7618 4.69798 17.2522 3.77074 18.1268C2.84331 19.0017 2.32111 20.1894 2.32111 21.4293ZM17.1588 15.959L17.8296 16.7975L17.8297 16.7975C18.3714 17.4742 18.6638 18.2982 18.6636 19.1446C18.6634 19.9909 18.3706 20.8148 17.8285 21.4912L17.1565 22.3287L15.3887 21.0679L16.0537 20.2392L16.0537 20.2392C16.3059 19.9245 16.443 19.5399 16.443 19.1438C16.443 18.7477 16.3059 18.3632 16.0537 18.0485L15.391 17.2198L17.1588 15.959ZM11.5003 3.05925C10.3519 3.05925 9.2494 3.48951 8.43568 4.25707C7.62176 5.02482 7.16333 6.06739 7.16333 7.15582C7.16333 8.24425 7.62176 9.28682 8.43568 10.0546C9.2494 10.8221 10.3519 11.2524 11.5003 11.2524C12.6487 11.2524 13.7511 10.8221 14.5649 10.0546C15.3788 9.28682 15.8372 8.24425 15.8372 7.15582C15.8372 6.06739 15.3788 5.02482 14.5649 4.25707C13.7511 3.48951 12.6487 3.05925 11.5003 3.05925ZM4.94222 7.15582C4.94222 5.51864 5.63165 3.94725 6.86093 2.7877C8.09042 1.62796 9.75914 0.975488 11.5003 0.975488C13.2414 0.975488 14.9101 1.62796 16.1396 2.7877C17.3689 3.94725 18.0583 5.51864 18.0583 7.15582C18.0583 8.793 17.3689 10.3644 16.1396 11.5239C14.9101 12.6837 13.2414 13.3361 11.5003 13.3361C9.75914 13.3361 8.09042 12.6837 6.86093 11.5239C5.63165 10.3644 4.94222 8.793 4.94222 7.15582Z" fill="#ed6c00" stroke="#ed6c00" stroke-width="0.2"/>
</svg>
