<svg width="26" height="26" viewBox="0 0 26 26" fill="none" xmlns="http://www.w3.org/2000/svg">
<mask id="path-1-outside-1_8092_1249" maskUnits="userSpaceOnUse" x="0" y="0.149414" width="26" height="26" fill="black">
<rect fill="white" y="0.149414" width="26" height="26"/>
<path d="M12.9888 11.8314C12.1716 11.8314 11.4748 11.5434 10.8985 10.9674C10.3222 10.3913 10.0349 9.69394 10.0365 8.87518C10.038 8.05643 10.3254 7.35982 10.8985 6.78535C11.4748 6.2093 12.1716 5.92128 12.9888 5.92128C13.806 5.92128 14.5027 6.20891 15.079 6.78417C15.6537 7.36021 15.9411 8.05761 15.9411 8.87636C15.9411 9.69433 15.6537 10.3913 15.079 10.9674C14.5043 11.5434 13.8076 11.8311 12.9888 11.8303M12.9888 10.6482C13.4745 10.6482 13.8914 10.4749 14.2394 10.1281C14.5866 9.77983 14.7602 9.36218 14.7602 8.87518C14.7602 8.38897 14.5866 7.97211 14.2394 7.62459C13.8914 7.27707 13.4745 7.10331 12.9888 7.10331C12.503 7.10331 12.0862 7.27707 11.7382 7.62459C11.3902 7.97211 11.2166 8.38937 11.2174 8.87636C11.2182 9.36336 11.3918 9.78023 11.7382 10.127C12.0862 10.4753 12.503 10.6494 12.9888 10.6494M6.49368 18.0135V16.3586C6.49368 16.0214 6.57044 15.7195 6.72396 15.4532C6.87748 15.1868 7.10107 14.9682 7.39472 14.7972C8.23555 14.3007 9.12518 13.9244 10.0636 13.6683C11.0029 13.413 11.9779 13.2853 12.9888 13.2853C13.9855 13.2853 14.9566 13.413 15.9021 13.6683C16.8477 13.9236 17.7412 14.2999 18.5828 14.7972C18.8615 14.9682 19.0812 15.1908 19.2418 15.465C19.4032 15.7385 19.4839 16.0367 19.4839 16.3598V18.0147L6.49368 18.0135ZM12.9888 14.4674C12.1062 14.4674 11.2205 14.5962 10.3317 14.8539C9.44285 15.1116 8.57093 15.4831 7.71594 15.9686V16.8551H18.2616V15.9449C17.4216 15.4603 16.5532 15.0931 15.6565 14.8433C14.7606 14.5935 13.8713 14.4674 12.9888 14.4674ZM23.8828 8.59859C23.2727 7.14547 22.4177 5.87203 21.3179 4.77826C20.218 3.68527 18.9572 2.8409 17.5354 2.24516L17.9959 1.14941C19.6374 1.87439 21.0254 2.79796 22.1599 3.9201C23.2951 5.04303 24.2418 6.44886 25 8.13759L23.8828 8.59859ZM2.09472 8.59859L1 8.13759C1.72824 6.46462 2.65999 5.06391 3.79526 3.93547C4.92895 2.80702 6.32441 1.87833 7.98165 1.14941L8.44221 2.24516C7.00541 2.85588 5.74064 3.70812 4.64789 4.8019C3.55513 5.89567 2.70329 7.16123 2.09472 8.59859ZM7.96039 25.1494C6.33386 24.456 4.938 23.517 3.77282 22.3326C2.60764 21.1482 1.68376 19.7503 1.00118 18.1388L2.0959 17.7002C2.70605 19.1384 3.5575 20.4043 4.65025 21.4981C5.743 22.5919 7.00738 23.4437 8.44339 24.0537L7.96039 25.1494ZM17.9747 25.1494L17.5365 24.0537C18.9733 23.443 20.2381 22.5911 21.3309 21.4981C22.4236 20.4051 23.2747 19.1392 23.884 17.7002L24.9787 18.1612C24.2544 19.8043 23.3128 21.205 22.154 22.3634C20.9943 23.5218 19.6012 24.4504 17.9747 25.1494ZM12.9888 16.8551H18.2616H7.71594H12.9888Z"/>
</mask>
<path d="M12.9888 11.8314C12.1716 11.8314 11.4748 11.5434 10.8985 10.9674C10.3222 10.3913 10.0349 9.69394 10.0365 8.87518C10.038 8.05643 10.3254 7.35982 10.8985 6.78535C11.4748 6.2093 12.1716 5.92128 12.9888 5.92128C13.806 5.92128 14.5027 6.20891 15.079 6.78417C15.6537 7.36021 15.9411 8.05761 15.9411 8.87636C15.9411 9.69433 15.6537 10.3913 15.079 10.9674C14.5043 11.5434 13.8076 11.8311 12.9888 11.8303M12.9888 10.6482C13.4745 10.6482 13.8914 10.4749 14.2394 10.1281C14.5866 9.77983 14.7602 9.36218 14.7602 8.87518C14.7602 8.38897 14.5866 7.97211 14.2394 7.62459C13.8914 7.27707 13.4745 7.10331 12.9888 7.10331C12.503 7.10331 12.0862 7.27707 11.7382 7.62459C11.3902 7.97211 11.2166 8.38937 11.2174 8.87636C11.2182 9.36336 11.3918 9.78023 11.7382 10.127C12.0862 10.4753 12.503 10.6494 12.9888 10.6494M6.49368 18.0135V16.3586C6.49368 16.0214 6.57044 15.7195 6.72396 15.4532C6.87748 15.1868 7.10107 14.9682 7.39472 14.7972C8.23555 14.3007 9.12518 13.9244 10.0636 13.6683C11.0029 13.413 11.9779 13.2853 12.9888 13.2853C13.9855 13.2853 14.9566 13.413 15.9021 13.6683C16.8477 13.9236 17.7412 14.2999 18.5828 14.7972C18.8615 14.9682 19.0812 15.1908 19.2418 15.465C19.4032 15.7385 19.4839 16.0367 19.4839 16.3598V18.0147L6.49368 18.0135ZM12.9888 14.4674C12.1062 14.4674 11.2205 14.5962 10.3317 14.8539C9.44285 15.1116 8.57093 15.4831 7.71594 15.9686V16.8551H18.2616V15.9449C17.4216 15.4603 16.5532 15.0931 15.6565 14.8433C14.7606 14.5935 13.8713 14.4674 12.9888 14.4674ZM23.8828 8.59859C23.2727 7.14547 22.4177 5.87203 21.3179 4.77826C20.218 3.68527 18.9572 2.8409 17.5354 2.24516L17.9959 1.14941C19.6374 1.87439 21.0254 2.79796 22.1599 3.9201C23.2951 5.04303 24.2418 6.44886 25 8.13759L23.8828 8.59859ZM2.09472 8.59859L1 8.13759C1.72824 6.46462 2.65999 5.06391 3.79526 3.93547C4.92895 2.80702 6.32441 1.87833 7.98165 1.14941L8.44221 2.24516C7.00541 2.85588 5.74064 3.70812 4.64789 4.8019C3.55513 5.89567 2.70329 7.16123 2.09472 8.59859ZM7.96039 25.1494C6.33386 24.456 4.938 23.517 3.77282 22.3326C2.60764 21.1482 1.68376 19.7503 1.00118 18.1388L2.0959 17.7002C2.70605 19.1384 3.5575 20.4043 4.65025 21.4981C5.743 22.5919 7.00738 23.4437 8.44339 24.0537L7.96039 25.1494ZM17.9747 25.1494L17.5365 24.0537C18.9733 23.443 20.2381 22.5911 21.3309 21.4981C22.4236 20.4051 23.2747 19.1392 23.884 17.7002L24.9787 18.1612C24.2544 19.8043 23.3128 21.205 22.154 22.3634C20.9943 23.5218 19.6012 24.4504 17.9747 25.1494ZM12.9888 16.8551H18.2616H7.71594H12.9888Z" fill="#004EA2"/>
<path d="M7.71594 17.1051H18.2616V16.6051H7.71594V17.1051ZM10.8985 6.78535L10.5451 6.43172L10.5446 6.4322L10.8985 6.78535ZM15.079 6.78417L15.433 6.43102L15.4323 6.43029L15.079 6.78417ZM14.2394 10.1281L14.5923 10.4823L14.5935 10.4811L14.2394 10.1281ZM14.2394 7.62459L14.5931 7.2712L14.5927 7.2708L14.2394 7.62459ZM11.7382 10.127L11.3845 10.4803L11.3845 10.4803L11.7382 10.127ZM6.49368 18.0135H5.99368V18.5134L6.49363 18.5135L6.49368 18.0135ZM7.39472 14.7972L7.64634 15.2293L7.64894 15.2277L7.39472 14.7972ZM10.0636 13.6683L9.93246 13.1858L9.93198 13.186L10.0636 13.6683ZM18.5828 14.7972L18.8444 14.3709L18.8372 14.3667L18.5828 14.7972ZM19.2418 15.465L18.8103 15.7177L18.8112 15.7192L19.2418 15.465ZM19.4839 18.0147L19.4838 18.5147L19.9839 18.5147V18.0147H19.4839ZM7.71594 15.9686L7.46907 15.5338L7.21594 15.6775V15.9686H7.71594ZM7.71594 16.8551H7.21594V17.3551H7.71594V16.8551ZM18.2616 16.8551V17.3551H18.7616V16.8551H18.2616ZM18.2616 15.9449H18.7616V15.6561L18.5115 15.5118L18.2616 15.9449ZM15.6565 14.8433L15.5222 15.3249L15.5223 15.3249L15.6565 14.8433ZM23.8828 8.59859L23.4218 8.79216L23.6142 9.25033L24.0736 9.06078L23.8828 8.59859ZM21.3179 4.77826L21.6704 4.42373L21.6703 4.4236L21.3179 4.77826ZM17.5354 2.24516L17.0744 2.05142L16.8805 2.51287L17.3421 2.70631L17.5354 2.24516ZM17.9959 1.14941L18.1979 0.692037L17.7322 0.486363L17.535 0.955673L17.9959 1.14941ZM22.1599 3.9201L22.5115 3.56462L22.5115 3.56462L22.1599 3.9201ZM25 8.13759L25.1907 8.59979L25.6673 8.40313L25.4561 7.93281L25 8.13759ZM2.09472 8.59859L1.90067 9.0594L2.36058 9.25307L2.55515 8.79353L2.09472 8.59859ZM1 8.13759L0.541551 7.93803L0.339582 8.40201L0.805951 8.5984L1 8.13759ZM3.79526 3.93547L4.14774 4.29008L4.14799 4.28984L3.79526 3.93547ZM7.98165 1.14941L8.44259 0.955673L8.24563 0.487077L7.78034 0.69173L7.98165 1.14941ZM8.44221 2.24516L8.6378 2.70532L9.09611 2.51051L8.90315 2.05142L8.44221 2.24516ZM7.96039 25.1494L7.7643 25.6094L8.21868 25.8031L8.41791 25.3511L7.96039 25.1494ZM1.00118 18.1388L0.815249 17.6746L0.3419 17.8643L0.540778 18.3338L1.00118 18.1388ZM2.0959 17.7002L2.55619 17.505L2.36482 17.0539L1.90997 17.2361L2.0959 17.7002ZM8.44339 24.0537L8.90091 24.2553L9.10533 23.7916L8.63886 23.5935L8.44339 24.0537ZM17.9747 25.1494L17.5104 25.335L17.7008 25.8113L18.1721 25.6088L17.9747 25.1494ZM17.5365 24.0537L17.3409 23.5935L16.8906 23.7849L17.0723 24.2393L17.5365 24.0537ZM23.884 17.7002L24.0781 17.2394L23.6182 17.0458L23.4236 17.5053L23.884 17.7002ZM24.9787 18.1612L25.4363 18.3629L25.6413 17.8977L25.1728 17.7004L24.9787 18.1612ZM22.154 22.3634L22.5073 22.7171L22.5074 22.717L22.154 22.3634ZM12.9888 11.3314C12.3037 11.3314 11.7342 11.0958 11.252 10.6138L10.5451 11.321C11.2154 11.9911 12.0394 12.3314 12.9888 12.3314V11.3314ZM11.252 10.6138C10.7703 10.1322 10.5351 9.56264 10.5365 8.87614L9.53646 8.87422C9.53463 9.82523 9.87421 10.6504 10.5451 11.321L11.252 10.6138ZM10.5365 8.87614C10.5378 8.18813 10.7736 7.61853 11.2525 7.13849L10.5446 6.4322C9.87722 7.10111 9.53829 7.92472 9.53646 8.87422L10.5365 8.87614ZM11.252 7.13898C11.7342 6.65696 12.3037 6.42128 12.9888 6.42128V5.42128C12.0394 5.42128 11.2154 5.76165 10.5451 6.43172L11.252 7.13898ZM12.9888 6.42128C13.6741 6.42128 14.2436 6.65673 14.7258 7.13804L15.4323 6.43029C14.7618 5.76109 13.9379 5.42128 12.9888 5.42128V6.42128ZM14.7251 7.13731C15.2056 7.61897 15.4411 8.18909 15.4411 8.87636H16.4411C16.4411 7.92612 16.1019 7.10145 15.433 6.43102L14.7251 7.13731ZM15.4411 8.87636C15.4411 9.5627 15.2057 10.1325 14.7251 10.6142L15.433 11.3205C16.1018 10.6502 16.4411 9.82596 16.4411 8.87636H15.4411ZM14.7251 10.6142C14.2449 11.0955 13.676 11.3309 12.9893 11.3303L12.9883 12.3303C13.9391 12.3312 14.7637 11.9914 15.433 11.3205L14.7251 10.6142ZM12.9888 11.1482C13.6085 11.1482 14.1518 10.9213 14.5923 10.4823L13.8865 9.77395C13.631 10.0285 13.3406 10.1482 12.9888 10.1482V11.1482ZM14.5935 10.4811C15.0331 10.0401 15.2602 9.49597 15.2602 8.87518H14.2602C14.2602 9.22839 14.1401 9.51953 13.8853 9.77515L14.5935 10.4811ZM15.2602 8.87518C15.2602 8.25491 15.0329 7.71139 14.5931 7.2712L13.8857 7.97798C14.1403 8.23283 14.2602 8.52303 14.2602 8.87518H15.2602ZM14.5927 7.2708C14.1523 6.83097 13.6089 6.60331 12.9888 6.60331V7.60331C13.3402 7.60331 13.6305 7.72318 13.8861 7.97838L14.5927 7.2708ZM12.9888 6.60331C12.3687 6.60331 11.8253 6.83097 11.3849 7.2708L12.0915 7.97838C12.347 7.72318 12.6374 7.60331 12.9888 7.60331V6.60331ZM11.3849 7.2708C10.9438 7.71127 10.7164 8.25571 10.7174 8.87717L11.7174 8.87556C11.7168 8.52303 11.8366 8.23295 12.0915 7.97838L11.3849 7.2708ZM10.7174 8.87717C10.7184 9.49737 10.9453 10.0407 11.3845 10.4803L12.0919 9.77357C11.8383 9.51972 11.718 9.22936 11.7174 8.87556L10.7174 8.87717ZM11.3845 10.4803C11.8248 10.9211 12.3683 11.1494 12.9888 11.1494V10.1494C12.6377 10.1494 12.3475 10.0294 12.0919 9.77357L11.3845 10.4803ZM6.99368 18.0135V16.3586H5.99368V18.0135H6.99368ZM6.99368 16.3586C6.99368 16.1003 7.05157 15.8861 7.15715 15.7029L6.29076 15.2035C6.08931 15.553 5.99368 15.9425 5.99368 16.3586H6.99368ZM7.15715 15.7029C7.26262 15.5199 7.41994 15.3611 7.64633 15.2292L7.14312 14.3651C6.7822 14.5753 6.49234 14.8538 6.29076 15.2035L7.15715 15.7029ZM7.64894 15.2277C8.45154 14.7538 9.29997 14.395 10.1953 14.1507L9.93198 13.186C8.95039 13.4538 8.01955 13.8476 7.14051 14.3666L7.64894 15.2277ZM10.1948 14.1508C11.0896 13.9076 12.0205 13.7853 12.9888 13.7853V12.7853C11.9353 12.7853 10.9161 12.9185 9.93246 13.1858L10.1948 14.1508ZM12.9888 13.7853C13.9423 13.7853 14.8695 13.9074 15.7718 14.151L16.0325 13.1856C15.0437 12.9186 14.0287 12.7853 12.9888 12.7853V13.7853ZM15.7718 14.151C16.6739 14.3946 17.5258 14.7534 18.3285 15.2276L18.8372 14.3667C17.9567 13.8465 17.0214 13.4527 16.0325 13.1856L15.7718 14.151ZM18.3213 15.2233C18.5321 15.3526 18.6925 15.5165 18.8103 15.7177L19.6732 15.2123C19.4699 14.8651 19.191 14.5837 18.8443 14.371L18.3213 15.2233ZM18.8112 15.7192C18.9263 15.9142 18.9839 16.1245 18.9839 16.3598H19.9839C19.9839 15.949 19.8801 15.5627 19.6724 15.2109L18.8112 15.7192ZM18.9839 16.3598V18.0147H19.9839V16.3598H18.9839ZM19.4839 17.5147L6.49372 17.5135L6.49363 18.5135L19.4838 18.5147L19.4839 17.5147ZM12.9888 13.9674C12.0569 13.9674 11.1244 14.1035 10.1925 14.3737L10.4709 15.3341C11.3167 15.0889 12.1556 14.9674 12.9888 14.9674V13.9674ZM10.1925 14.3737C9.26383 14.6429 8.35594 15.0302 7.46907 15.5338L7.9628 16.4034C8.78592 15.936 9.62186 15.5803 10.4709 15.3341L10.1925 14.3737ZM7.21594 15.9686V16.8551H8.21594V15.9686H7.21594ZM18.7616 16.8551V15.9449H17.7616V16.8551H18.7616ZM18.5115 15.5118C17.6366 15.0071 16.7295 14.6231 15.7907 14.3616L15.5223 15.3249C16.3769 15.563 17.2066 15.9135 18.0118 16.378L18.5115 15.5118ZM15.7908 14.3616C14.8539 14.1004 13.9195 13.9674 12.9888 13.9674V14.9674C13.8231 14.9674 14.6672 15.0865 15.5222 15.3249L15.7908 14.3616ZM24.3439 8.40501C23.7088 6.89267 22.8173 5.56431 21.6704 4.42373L20.9653 5.13278C22.0181 6.17975 22.8366 7.39828 23.4218 8.79216L24.3439 8.40501ZM21.6703 4.4236C20.525 3.28545 19.2102 2.4048 17.7286 1.784L17.3421 2.70631C18.7042 3.277 19.911 4.08508 20.9654 5.13291L21.6703 4.4236ZM17.9963 2.4389L18.4569 1.34316L17.535 0.955673L17.0744 2.05142L17.9963 2.4389ZM17.7939 1.60679C19.3866 2.31023 20.7221 3.20121 21.8083 4.27558L22.5115 3.56462C21.3287 2.3947 19.8882 1.43856 18.1979 0.692037L17.7939 1.60679ZM21.8083 4.27558C22.8933 5.34883 23.807 6.70107 24.5439 8.34238L25.4561 7.93281C24.6767 6.19666 23.697 4.73723 22.5115 3.56462L21.8083 4.27558ZM24.8093 7.6754L23.6921 8.13639L24.0736 9.06078L25.1907 8.59979L24.8093 7.6754ZM2.28877 8.13778L1.19405 7.67678L0.805951 8.5984L1.90067 9.0594L2.28877 8.13778ZM1.45845 8.33716C2.16497 6.71407 3.0631 5.36822 4.14774 4.29008L3.44277 3.58085C2.25689 4.75961 1.2915 6.21518 0.541551 7.93803L1.45845 8.33716ZM4.14799 4.28984C5.23263 3.21021 6.57475 2.31445 8.18295 1.6071L7.78034 0.69173C6.07407 1.44222 4.62526 2.40383 3.44252 3.58109L4.14799 4.28984ZM7.52071 1.34315L7.98127 2.4389L8.90315 2.05142L8.44259 0.955673L7.52071 1.34315ZM8.24662 1.785C6.75134 2.42058 5.43274 3.30887 4.29417 4.44851L5.0016 5.15528C6.04854 4.10737 7.25949 3.29117 8.6378 2.70532L8.24662 1.785ZM4.29417 4.44851C3.1557 5.58804 2.26776 6.90749 1.63429 8.40364L2.55515 8.79353C3.13883 7.41498 3.95457 6.2033 5.0016 5.15528L4.29417 4.44851ZM8.15648 24.6895C6.58611 24.02 5.24575 23.1169 4.12925 21.982L3.41639 22.6833C4.63025 23.9172 6.0816 24.892 7.7643 25.6094L8.15648 24.6895ZM4.12925 21.982C3.01054 20.8448 2.12094 19.5004 1.46158 17.9438L0.540778 18.3338C1.24658 20.0001 2.20473 21.4516 3.41639 22.6833L4.12925 21.982ZM1.18711 18.6029L2.28183 18.1644L1.90997 17.2361L0.815249 17.6746L1.18711 18.6029ZM1.63561 17.8955C2.27054 19.3921 3.15796 20.7119 4.29653 21.8515L5.00397 21.1447C3.95703 20.0968 3.14155 18.8847 2.55619 17.505L1.63561 17.8955ZM4.29653 21.8515C5.4351 22.9911 6.75334 23.8791 8.24792 24.5139L8.63886 23.5935C7.26142 23.0084 6.0509 22.1926 5.00397 21.1447L4.29653 21.8515ZM7.98587 23.852L7.50287 24.9477L8.41791 25.3511L8.90091 24.2553L7.98587 23.852ZM18.4389 24.9638L18.0008 23.868L17.0723 24.2393L17.5104 25.335L18.4389 24.9638ZM17.7321 24.5138C19.2273 23.8783 20.5459 22.9904 21.6844 21.8516L20.9773 21.1446C19.9303 22.1918 18.7193 23.0076 17.3409 23.5935L17.7321 24.5138ZM21.6844 21.8516C22.8232 20.7126 23.7103 19.3927 24.3444 17.8952L23.4236 17.5053C22.839 18.8856 22.024 20.0976 20.9773 21.1446L21.6844 21.8516ZM23.69 18.161L24.7847 18.622L25.1728 17.7004L24.0781 17.2394L23.69 18.161ZM24.5212 17.9595C23.8195 19.5514 22.9116 20.8991 21.8005 22.0097L22.5074 22.717C23.7141 21.5108 24.6894 20.0572 25.4363 18.3629L24.5212 17.9595ZM21.8006 22.0096C20.6892 23.1198 19.3503 24.0141 17.7772 24.69L18.1721 25.6088C19.8521 24.8868 21.2994 23.9237 22.5073 22.7171L21.8006 22.0096ZM12.9888 17.3551H18.2616V16.3551H12.9888V17.3551ZM7.71594 17.3551H12.9888V16.3551H7.71594V17.3551Z" fill="#004EA2" mask="url(#path-1-outside-1_8092_1249)"/>
</svg>
