<svg width="26" height="25" viewBox="0 0 26 25" fill="none" xmlns="http://www.w3.org/2000/svg">
<path d="M16.4167 19.5436C16.4167 19.7509 16.3343 19.9497 16.1877 20.0963C16.0411 20.243 15.8422 20.3253 15.6349 20.3253H4.69047C4.51849 20.3253 4.35432 20.4817 4.21361 20.5833L1.56349 22.6706V10.1626C1.56349 9.95529 1.64585 9.75645 1.79246 9.60984C1.93907 9.46324 2.13791 9.38087 2.34524 9.38087H5.36278V7.81738H2.34524C1.72324 7.81738 1.12672 8.06447 0.686904 8.50429C0.247087 8.9441 0 9.54062 0 10.1626V24.234C0.00116347 24.3792 0.0427357 24.5212 0.120058 24.6441C0.19738 24.767 0.307396 24.8659 0.437778 24.9298C0.563388 24.9869 0.70188 25.0098 0.839184 24.996C0.976489 24.9823 1.10771 24.9325 1.21952 24.8516L5.24551 21.8888H15.7522C16.0485 21.8976 16.3434 21.8454 16.6187 21.7355C16.894 21.6257 17.1438 21.4605 17.3527 21.2501C17.5616 21.0398 17.725 20.7888 17.833 20.5128C17.9409 20.2367 17.991 19.9414 17.9802 19.6452V18.7618H16.4167V19.5436Z" fill="#ED6C00"/>
<path d="M23.4518 9.55291V17.1515L20.7157 15.0173C20.5793 14.9114 20.4116 14.8537 20.2388 14.8531H9.38039C9.17306 14.8531 8.97422 14.7708 8.82762 14.6242C8.68101 14.4776 8.59865 14.2787 8.59865 14.0714V4.69045C8.59865 4.48312 8.68101 4.28428 8.82762 4.13767C8.97422 3.99107 9.17306 3.90871 9.38039 3.90871H16.0252C16.0274 3.38006 16.101 2.85413 16.2441 2.34521H9.38039C8.7584 2.34521 8.16188 2.5923 7.72206 3.03212C7.28224 3.47194 7.03516 4.06846 7.03516 4.69045V14.0714C7.03516 14.6934 7.28224 15.2899 7.72206 15.7297C8.16188 16.1696 8.7584 16.4166 9.38039 16.4166H19.973L23.7098 19.3169C23.8209 19.399 23.9517 19.4503 24.0891 19.4654C24.2264 19.4805 24.3653 19.4589 24.4915 19.4029C24.6246 19.3395 24.737 19.2399 24.8158 19.1154C24.8947 18.9909 24.9367 18.8467 24.9371 18.6993V8.88843C24.4753 9.17788 23.9754 9.40153 23.4518 9.55291Z" fill="#ED6C00"/>
<path d="M21.8892 7.81746C24.0479 7.81746 25.7979 6.06746 25.7979 3.90873C25.7979 1.75 24.0479 0 21.8892 0C19.7305 0 17.9805 1.75 17.9805 3.90873C17.9805 6.06746 19.7305 7.81746 21.8892 7.81746Z" fill="#ED6C00"/>
</svg>
