<svg fill="none" height="20" viewBox="0 0 20 20" width="20" xmlns="http://www.w3.org/2000/svg"><g fill="#374151"><path d="m2 10.5c0-.82843.67157-1.5 1.5-1.5s1.5.67157 1.5 1.5v6c0 .8284-.67157 1.5-1.5 1.5s-1.5-.6716-1.5-1.5z"/><path d="m6 10.3333v5.4306c0 .7576.428 1.4501 1.10557 1.7889l.04985.0249c.55542.2777 1.16787.4223 1.78885.4223h5.41613c.9534 0 1.7742-.6729 1.9612-1.6078l1.2-6c.2475-1.23755-.6991-2.3922-1.9612-2.3922h-3.5604v-4c0-1.10457-.8954-2-2-2-.55228 0-1 .44772-1 1v.66667c0 .86548-.28071 1.70761-.8 2.4l-1.4 1.86666c-.51929.69239-.8 1.53452-.8 2.39997z"/></g></svg>