<svg width="23" height="22" viewBox="0 0 23 22" fill="none" xmlns="http://www.w3.org/2000/svg">
<path d="M0 1.30791C0.00210455 1.00152 0.122935 0.708268 0.33639 0.491501C0.549844 0.274735 0.838787 0.151858 1.1408 0.149414H21.8592C22.4894 0.149414 23 0.668581 23 1.30791V19.9909C22.9979 20.2973 22.8771 20.5906 22.6636 20.8073C22.4502 21.0241 22.1612 21.147 21.8592 21.1494H1.1408C0.838135 21.1491 0.547971 21.0269 0.334063 20.8097C0.120154 20.5925 -1.53473e-07 20.298 0 19.9909V1.30791ZM2.3 2.48275V18.8161H20.7V2.48275H2.3ZM9.9153 6.46691L15.5261 10.2609C15.5892 10.3035 15.641 10.3613 15.6768 10.429C15.7126 10.4968 15.7313 10.5725 15.7313 10.6494C15.7313 10.7263 15.7126 10.802 15.6768 10.8698C15.641 10.9376 15.5892 10.9953 15.5261 11.0379L9.91415 14.8319C9.84495 14.8784 9.76463 14.9051 9.6817 14.9091C9.59877 14.9131 9.51633 14.8942 9.44312 14.8545C9.36991 14.8148 9.30865 14.7557 9.26585 14.6835C9.22304 14.6114 9.20029 14.5288 9.2 14.4446V6.85425C9.20015 6.76984 9.22287 6.68706 9.26573 6.61471C9.30859 6.54236 9.36999 6.48316 9.44339 6.44342C9.51679 6.40367 9.59944 6.38487 9.68255 6.389C9.76565 6.39314 9.84609 6.42007 9.9153 6.46691Z" fill="#004EA2"/>
</svg>
