<svg width="30" height="30" viewBox="0 0 30 30" fill="none" xmlns="http://www.w3.org/2000/svg">
<path d="M8.53182 9.61051C9.67364 9.61051 10.7687 9.15692 11.5761 8.34953C12.3835 7.54214 12.8371 6.44708 12.8371 5.30526C12.8371 4.16343 12.3835 3.06837 11.5761 2.26098C10.7687 1.45359 9.67364 1 8.53182 1C7.38999 1 6.29494 1.45359 5.48754 2.26098C4.68015 3.06837 4.22656 4.16343 4.22656 5.30526C4.22656 6.44708 4.68015 7.54214 5.48754 8.34953C6.29494 9.15692 7.38999 9.61051 8.53182 9.61051Z" stroke="#004EA2" stroke-width="2" stroke-linecap="round" stroke-linejoin="round"/>
<path d="M12.1657 22.5779L11.3649 28.9841H5.73148L4.65516 20.3736H1V17.1446C1.00029 15.2653 1.70296 13.4539 2.97011 12.0659C4.23726 10.678 5.97738 9.81374 7.84896 9.64281C9.72054 9.47189 11.5884 10.0066 13.086 11.142C14.5836 12.2775 15.6028 13.9316 15.9435 15.7799M19.6138 19.4867V18.0875C19.6138 17.5166 19.8406 16.969 20.2443 16.5653C20.648 16.1616 21.1955 15.9349 21.7664 15.9349H22.6533C23.2242 15.9349 23.7717 16.1616 24.1754 16.5653C24.5791 16.969 24.8059 17.5166 24.8059 18.0875V19.4867M15.5647 21.3853C15.5647 20.337 16.415 19.4867 17.4633 19.4867H26.9607C28.009 19.4867 28.8593 20.337 28.8593 21.3875V27.0855C28.8593 27.589 28.6593 28.0719 28.3032 28.428C27.9472 28.7841 27.4642 28.9841 26.9607 28.9841H17.4633C16.9598 28.9841 16.4768 28.7841 16.1208 28.428C15.7647 28.0719 15.5647 27.589 15.5647 27.0855V21.3853Z" stroke="#004EA2" stroke-width="2" stroke-linecap="round" stroke-linejoin="round"/>
</svg>
